<?xml version="1.0" encoding="UTF-8"?>
<svg width="245px" height="246px" viewBox="0 0 245 246" version="1.1" xmlns="http://www.w3.org/2000/svg" xmlns:xlink="http://www.w3.org/1999/xlink">
    <!-- Generator: Sketch 61 (89581) - https://sketch.com -->
    <title>8base-logo</title>
    <desc>Created with Sketch.</desc>
    <g id="Page-1" stroke="none" stroke-width="1" fill="none" fill-rule="evenodd">
        <g id="8base-logo" transform="translate(0.000000, 0.619980)" fill-rule="nonzero">
            <circle id="Oval-Copy" fill="#E94235" cx="122.502159" cy="122.305809" r="122.305809"></circle>
            <path d="M122.502159,207.323883 C93.3902187,207.323883 68.0987426,183.84076 68.0987426,154.295833 C68.0987426,136.2123 76.4782951,121.643595 92.3714281,113.264043 C83.3296617,104.451504 77.8027228,95.4352074 77.8027228,82.394688 C76.9424214,65.8130925 85.3076933,50.1114768 99.5495952,41.5758072 C113.791497,33.0401377 131.582446,33.0654161 145.800035,41.6415225 C160.017623,50.217629 168.338242,65.942953 167.430824,82.5220368 C167.430824,95.7663143 161.700127,104.578853 152.658361,113.391391 C168.551494,121.770944 176.931123,136.314179 176.931123,154.423182 C176.981986,183.84076 151.6141,207.323883 122.502159,207.323883 Z M122.502159,129.259055 C108.618462,129.259055 97.3635019,140.514015 97.3635019,154.397712 C97.3635019,168.281409 108.618462,179.53637 122.502159,179.53637 C136.385857,179.53637 147.64114,168.281409 147.64114,154.397712 C147.67473,147.710827 145.040363,141.286546 140.321532,136.548591 C135.6027,131.810636 129.189127,129.150308 122.502159,129.157162 L122.502159,129.259055 Z M122.502159,65.304476 C115.402323,65.2530727 108.971072,69.484892 106.208895,76.025587 C103.446717,82.5662821 104.897937,90.1269197 109.885491,95.1800993 C114.873045,100.233279 122.414067,101.783203 128.990309,99.1067564 C135.56655,96.4303102 139.882073,90.0549245 139.923478,82.9550228 C140.005401,78.2795333 138.206996,73.7668574 134.93169,70.4293011 C131.656383,67.0917448 127.178363,65.2087059 122.502159,65.202597 L122.502159,65.304476 Z" id="Shape" fill="#FFFFFF"></path>
        </g>
    </g>
</svg>