<?xml version="1.0" encoding="UTF-8"?>
<svg width="794px" height="245px" viewBox="0 0 794 245" version="1.1" xmlns="http://www.w3.org/2000/svg" xmlns:xlink="http://www.w3.org/1999/xlink">
    <!-- Generator: Sketch 61 (89581) - https://sketch.com -->
    <title>8base-logo-dark[primary]</title>
    <desc>Created with Sketch.</desc>
    <g id="8base-logo-dark[primary]" stroke="none" stroke-width="1" fill="none" fill-rule="evenodd">
        <g fill-rule="nonzero">
            <path d="M304.5,100.333333 C312.666667,86.5666667 329.7,79.3333333 347.433333,79.3333333 C381.266667,79.3333333 409.033333,103.833333 409.033333,142.8 C409.033333,181.766667 380.566667,206.5 346.966667,206.5 C329.933333,206.5 312.433333,199.033333 304.266667,185.033333 L304.266667,193.2 C304.266667,199.772189 298.938855,205.1 292.366667,205.1 C285.794478,205.1 280.466667,199.772189 280.466667,193.2 L280.466667,49.4666667 C280.36233,42.904106 285.571727,37.4863334 292.133333,37.3333333 C298.818485,37.3715716 304.228428,42.7815146 304.266667,49.4666667 L304.266667,100.333333 L304.5,100.333333 Z M345.1,183.4 C367.033333,183.4 384.533333,166.6 384.533333,142.566667 C384.533333,118.533333 367.033333,102.666667 345.1,102.666667 C325.5,102.666667 304.5,116.433333 304.5,142.566667 C304.5,168.7 323.4,183.4 345.1,183.4 Z" id="Shape" fill="#2C3339"></path>
            <path d="M528.033333,185.266667 C519.866667,199.033333 502.133333,206.733333 485.1,206.733333 C451.733333,206.733333 423.033333,181.533333 423.033333,143.033333 C423.033333,104.066667 451.5,79.5666667 485.1,79.5666667 C502.133333,79.5666667 519.866667,86.5666667 528.033333,100.566667 L528.033333,93.1 C527.928997,86.5374394 533.138394,81.1196668 539.7,80.9666667 C546.385152,81.0049049 551.795095,86.4148479 551.833333,93.1 L551.833333,193.666667 C551.833333,197.918127 549.565207,201.846639 545.883334,203.97237 C542.201461,206.0981 537.665206,206.0981 533.983333,203.97237 C530.30146,201.846639 528.033333,197.918127 528.033333,193.666667 L528.033333,185.266667 Z M487.433333,102.666667 C465.5,102.666667 447.766667,118.3 447.766667,142.566667 C447.766667,166.833333 465.5,183.4 487.433333,183.4 C509.366667,183.4 528.033333,168.466667 528.033333,142.566667 C528.033333,116.666667 507.033333,102.666667 487.433333,102.666667 Z" id="Shape" fill="#2C3339"></path>
            <path d="M616.233333,185.733333 C628.6,185.733333 637.7,179.2 637.7,169.633333 C637.7,160.766667 630.7,156.333333 621.6,154.233333 L604.8,150.266667 C584.266667,144.666667 571.9,134.633333 571.9,115.266667 C571.9,95.2 589.866667,79.5666667 614.6,79.5666667 C630.466667,79.5666667 645.866667,85.4 653.1,99.4 C653.973888,101.140598 654.451973,103.052937 654.5,105 C654.5,112.933333 647.033333,115.733333 643.3,115.733333 C639.566667,115.733333 637.233333,113.866667 634.666667,110.6 C629.066667,103.366667 623,100.333333 615.3,100.333333 C603.866667,100.333333 596.166667,107.1 596.166667,116.2 C596.166667,124.133333 603.633333,128.566667 611.566667,130.2 L629.533333,134.633333 C654.966667,140.933333 661.266667,156.333333 661.266667,170.1 C661.266667,192.733333 639.333333,206.733333 613.9,206.733333 C595,206.733333 575.633333,196.233333 570.033333,177.566667 C569.777537,176.336813 569.621475,175.088311 569.566667,173.833333 C569.566667,167.533333 575.633333,164.5 581,164.5 C585.507072,164.363717 589.614722,167.071033 591.266667,171.266667 C594.3,180.133333 603.866667,185.733333 616.233333,185.733333 Z" id="Path" fill="#2C3339"></path>
            <path d="M783.766667,152.133333 L693.933333,152.133333 C696.733333,172.433333 712.833333,185.266667 733.366667,185.266667 C748.066667,185.266667 756,181.533333 764.4,172.433333 C768.833333,167.533333 775.6,165.9 780.266667,169.4 C784.933333,172.9 786.1,180.133333 782.366667,184.333333 C770.7,199.5 752.266667,206.733333 732.433333,206.733333 C697.666667,206.733333 669.9,181.3 669.9,142.8 C669.9,104.3 697.666667,79.5666667 732.433333,79.5666667 C767.2,79.5666667 793.1,104.066667 793.1,142.8 C793.1,147.954658 788.921324,152.133333 783.766667,152.133333 Z M769.766667,133.466667 C766.966667,113.166667 752.266667,100.8 732.666667,100.8 C712.6,100.8 696.966667,113.166667 693.933333,133.466667 L769.766667,133.466667 Z" id="Shape" fill="#2C3339"></path>
            <circle id="Oval" fill="#EA4235" cx="122.266667" cy="122.266667" r="122.266667"></circle>
            <path d="M122.266667,206.733333 C93.3333333,206.733333 67.9,183.4 67.9,154 C67.9,136.033333 76.3,121.566667 92.1666667,113.166667 C83.0666667,104.3 77.7,95.4333333 77.7,82.3666667 C77.7,57.6887431 97.7054098,37.6833333 122.383333,37.6833333 C147.061257,37.6833333 167.066667,57.6887431 167.066667,82.3666667 C167.066667,95.4333333 161.466667,104.3 152.366667,113.166667 C168.233333,121.566667 176.633333,136.033333 176.633333,154 C176.4,183.4 151.2,206.733333 122.266667,206.733333 Z M122.266667,129.033333 C108.477957,129.033333 97.3,140.211291 97.3,154 C97.3,167.788709 108.477957,178.966667 122.266667,178.966667 C136.055376,178.966667 147.233333,167.788709 147.233333,154 C147.22047,140.216623 136.050044,129.046197 122.266667,129.033333 Z M122.266667,65.3333333 C112.666433,65.2691185 104.83181,72.999512 104.767451,82.5997443 C104.703092,92.1999765 112.433368,100.034716 122.0336,100.099219 C131.633831,100.163722 139.468686,92.4335636 139.533333,82.8333333 C139.564379,78.2229556 137.762635,73.789085 134.524484,70.5071757 C131.286334,67.2252664 126.877046,65.3641716 122.266667,65.3333333 Z" id="Shape" fill="#FFFFFF"></path>
        </g>
    </g>
</svg>