<svg width="121" height="37" viewBox="0 0 121 37" fill="none" xmlns="http://www.w3.org/2000/svg">
<path d="M46.4563 15.1812C47.7023 13.0982 50.301 12.0038 53.0065 12.0038C58.1683 12.0038 62.4045 15.7108 62.4045 21.6068C62.4045 27.5028 58.0615 31.2452 52.9353 31.2452C50.3366 31.2452 47.6667 30.1154 46.4207 27.9971V29.2328C46.4207 29.7103 46.2295 30.1683 45.889 30.506C45.5485 30.8436 45.0867 31.0333 44.6052 31.0333C44.1237 31.0333 43.6619 30.8436 43.3214 30.506C42.9809 30.1683 42.7897 29.7103 42.7897 29.2328V7.48468C42.782 7.00765 42.9648 6.54696 43.2983 6.20306C43.6317 5.85916 44.0887 5.65993 44.5696 5.6488C45.0597 5.65158 45.5289 5.8459 45.8754 6.18959C46.222 6.53328 46.4179 6.99863 46.4207 7.48468V15.1812H46.4563ZM52.6505 27.7499C55.9968 27.7499 58.6667 25.208 58.6667 21.5715C58.6667 17.9351 55.9968 15.5343 52.6505 15.5343C49.6602 15.5343 46.4563 17.6173 46.4563 21.5715C46.4563 25.5257 49.3398 27.7499 52.6505 27.7499Z" fill="white"/>
<path d="M80.5599 28.0325C79.3139 30.1155 76.6084 31.2806 74.0097 31.2806C68.9191 31.2806 64.5405 27.4676 64.5405 21.6422C64.5405 15.7462 68.8835 12.0392 74.0097 12.0392C76.6084 12.0392 79.3139 13.0983 80.5599 15.2167V14.0869C80.5522 13.6099 80.7351 13.1492 81.0685 12.8053C81.4019 12.4614 81.8589 12.2621 82.3398 12.251C82.8299 12.2538 83.2991 12.4481 83.6457 12.7918C83.9922 13.1355 84.1882 13.6008 84.191 14.0869V29.3035C84.191 29.781 83.9997 30.239 83.6592 30.5767C83.3187 30.9144 82.8569 31.1041 82.3754 31.1041C81.8939 31.1041 81.4321 30.9144 81.0916 30.5767C80.7512 30.239 80.5599 29.781 80.5599 29.3035V28.0325ZM74.3657 15.5344C71.0194 15.5344 68.3139 17.8999 68.3139 21.5716C68.3139 25.2434 71.0194 27.7501 74.3657 27.7501C77.712 27.7501 80.5599 25.4905 80.5599 21.5716C80.5599 17.6527 77.356 15.5344 74.3657 15.5344Z" fill="white"/>
<path d="M94.0162 28.1031C95.9029 28.1031 97.2912 27.1146 97.2912 25.667C97.2912 24.3254 96.2233 23.6546 94.8349 23.3369L92.2718 22.7367C89.1391 21.8894 87.2524 20.3712 87.2524 17.4409C87.2524 14.4046 89.9935 12.0392 93.767 12.0392C96.1877 12.0392 98.5372 12.9218 99.6408 15.0401C99.7741 15.3035 99.847 15.5929 99.8544 15.8875C99.8544 17.0878 98.7152 17.5115 98.1456 17.5115C97.576 17.5115 97.22 17.2291 96.8285 16.7348C95.9741 15.6403 95.0485 15.1814 93.8738 15.1814C92.1294 15.1814 90.9547 16.2052 90.9547 17.5821C90.9547 18.7825 92.0938 19.4533 93.3042 19.7004L96.0453 20.3712C99.9255 21.3245 100.887 23.6546 100.887 25.7377C100.887 29.1623 97.5404 31.2806 93.6602 31.2806C90.7767 31.2806 87.822 29.6919 86.9676 26.8674C86.9286 26.6813 86.9048 26.4924 86.8964 26.3025C86.8964 25.3493 87.822 24.8903 88.6408 24.8903C88.9764 24.8803 89.3069 24.9732 89.5873 25.1565C89.8676 25.3397 90.0841 25.6043 90.2071 25.9142C90.6699 27.2558 92.1294 28.1031 94.0162 28.1031Z" fill="white"/>
<path d="M119.576 23.0191H105.871C106.298 26.0907 108.754 28.0325 111.887 28.0325C114.129 28.0325 115.34 27.4676 116.621 26.0907C117.298 25.3493 118.33 25.1022 119.042 25.6317C119.754 26.1613 119.932 27.2558 119.362 27.8913C117.582 30.1861 114.77 31.2806 111.744 31.2806C106.44 31.2806 102.204 27.4323 102.204 21.6069C102.204 15.7816 106.44 12.0392 111.744 12.0392C117.049 12.0392 121 15.7462 121 21.6069C121 21.9815 120.85 22.3407 120.583 22.6055C120.316 22.8704 119.954 23.0191 119.576 23.0191ZM117.44 20.1947C117.013 17.1232 114.77 15.252 111.78 15.252C108.718 15.252 106.333 17.1232 105.871 20.1947H117.44Z" fill="white"/>
<path d="M18.6537 37C28.9559 37 37.3075 28.7173 37.3075 18.5C37.3075 8.28273 28.9559 0 18.6537 0C8.35156 0 0 8.28273 0 18.5C0 28.7173 8.35156 37 18.6537 37Z" fill="#EA4235"/>
<path d="M18.6537 31.2805C14.2395 31.2805 10.3592 27.75 10.3592 23.3015C10.3592 20.583 11.6407 18.3941 14.0615 17.1231C12.6731 15.7815 11.8543 14.4399 11.8543 12.4628C11.8543 10.6696 12.5726 8.94995 13.851 7.68203C15.1295 6.4141 16.8635 5.70178 18.6715 5.70178C20.4795 5.70178 22.2135 6.4141 23.4919 7.68203C24.7704 8.94995 25.4886 10.6696 25.4886 12.4628C25.4886 14.4399 24.6343 15.7815 23.2459 17.1231C25.6666 18.3941 26.9482 20.583 26.9482 23.3015C26.9126 27.75 23.0679 31.2805 18.6537 31.2805ZM18.6537 19.5238C17.9003 19.5238 17.1639 19.7454 16.5375 20.1605C15.9111 20.5756 15.4229 21.1656 15.1346 21.8558C14.8463 22.5461 14.7708 23.3057 14.9178 24.0385C15.0648 24.7713 15.4276 25.4444 15.9603 25.9727C16.493 26.501 17.1717 26.8608 17.9106 27.0066C18.6495 27.1523 19.4153 27.0775 20.1114 26.7916C20.8074 26.5057 21.4023 26.0215 21.8208 25.4003C22.2394 24.779 22.4628 24.0486 22.4628 23.3015C22.4618 22.2999 22.0602 21.3396 21.3461 20.6313C20.6319 19.9231 19.6636 19.5248 18.6537 19.5238ZM18.6537 9.88547C18.1292 9.88199 17.6154 10.0328 17.1773 10.3189C16.7392 10.6051 16.3966 11.0136 16.1926 11.4928C15.9886 11.9721 15.9325 12.5006 16.0314 13.0115C16.1303 13.5224 16.3797 13.9927 16.7481 14.363C17.1165 14.7333 17.5873 14.9869 18.1011 15.0919C18.6148 15.1968 19.1484 15.1482 19.6344 14.9524C20.1203 14.7566 20.5368 14.4222 20.8311 13.9916C21.1255 13.561 21.2845 13.0536 21.288 12.5334C21.2903 12.188 21.2241 11.8455 21.0929 11.5255C20.9618 11.2055 20.7684 10.9142 20.5238 10.6683C20.2792 10.4224 19.9881 10.2267 19.6673 10.0924C19.3464 9.9581 19.002 9.88778 18.6537 9.88547Z" fill="white"/>
</svg>
