<svg xmlns="http://www.w3.org/2000/svg" width="33" height="34" viewBox="0 0 33 34">
  <path fill="#00D57D" fill-rule="evenodd" d="M17.646685,5.88712 C26.60133,5.88712 33.88623,13.172332 33.88623,22.126432 C33.88623,31.080928 26.60133,38.36614 17.646685,38.36614 C8.692285,38.36614 1.40728,31.080928 1.40728,22.126432 C1.40728,13.172332 8.692285,5.88712 17.646685,5.88712 Z M23.596965,16.929148 C23.893345,16.917232 24.18066,17.032612 24.386705,17.245084 C24.78602,17.657752 24.77447,18.314896 24.361015,18.713056 C21.60774,21.46558 19.093235,24.221416 16.29719,27.016348 C15.922865,27.39406 15.32307,27.429016 14.90713,27.097492 L11.00526,23.983636 C10.556385,23.625688 10.483515,22.972252 10.84286,22.523872 C11.201925,22.076212 11.85695,22.003636 12.30593,22.36198 L15.468005,24.88342 C17.96795,22.351936 20.31015,19.815988 22.881565,17.245444 C23.069655,17.051224 23.326275,16.937716 23.596965,16.929148 Z M17.646685,36.531256 C25.58962,36.531256 32.051425,30.069184 32.051425,22.126432 C32.051425,14.184076 25.58962,7.722004 17.646685,7.722004 C9.703995,7.722004 3.242085,14.184076 3.242085,22.126432 C3.242085,30.069184 9.703995,36.531256 17.646685,36.531256 Z" transform="translate(-1 -5)"/>
</svg>
