<svg xmlns="http://www.w3.org/2000/svg" width="409" height="304" viewBox="0 0 409 304">
  <g fill="none" transform="translate(-7 -7)">
    <g transform="translate(.7 15.948)">
      <path fill="#313131" fill-opacity=".15" d="M52.3539924,28.09632 L198.302121,28.0144135 C211.755775,28.0068633 222.668237,38.9070844 222.675788,52.3607388 C222.675793,52.3698467 222.675793,52.3789546 222.675788,52.3880626 L222.593845,198.593105 C222.586311,212.03609 211.690505,222.931904 198.24752,222.939448 L52.2993917,223.021355 C38.8457373,223.028905 27.9332748,212.128684 27.9257246,198.675029 C27.9257195,198.665922 27.9257195,198.656814 27.9257246,198.647706 L28.0076671,52.4426633 C28.0152014,38.9996782 38.9110074,28.1038642 52.3539924,28.09632 Z" transform="rotate(-20.19 125.3 125.518)"/>
      <path fill="#FFF" fill-opacity=".1" d="M52.3539924,28.09632 L198.302121,28.0144135 C211.755775,28.0068633 222.668237,38.9070844 222.675788,52.3607388 C222.675793,52.3698467 222.675793,52.3789546 222.675788,52.3880626 L222.593845,198.593105 C222.586311,212.03609 211.690505,222.931904 198.24752,222.939448 L52.2993917,223.021355 C38.8457373,223.028905 27.9332748,212.128684 27.9257246,198.675029 C27.9257195,198.665922 27.9257195,198.656814 27.9257246,198.647706 L28.0076671,52.4426633 C28.0152014,38.9996782 38.9110074,28.1038642 52.3539924,28.09632 Z" transform="rotate(-20.19 125.3 125.518)"/>
      <path fill="#313131" fill-opacity=".15" d="M223.306849,79.4074186 L369.640512,79.2899675 C383.094164,79.2791693 394.009258,90.1767555 394.020056,103.630408 C394.020067,103.643455 394.020067,103.656502 394.020056,103.669549 L393.902679,249.635049 C393.891873,263.073418 383.000608,273.964666 369.562239,273.975452 L223.228576,274.092903 C209.774923,274.103701 198.85983,263.206115 198.849031,249.752463 C198.849021,249.739416 198.849021,249.726369 198.849031,249.713322 L198.966409,103.747822 C198.977215,90.3094526 209.86848,79.4182046 223.306849,79.4074186 Z" transform="rotate(-69.81 296.435 176.691)"/>
      <path fill="#FFF" fill-opacity=".1" d="M223.306849,79.4074186 L369.640512,79.2899675 C383.094164,79.2791693 394.009258,90.1767555 394.020056,103.630408 C394.020067,103.643455 394.020067,103.656502 394.020056,103.669549 L393.902679,249.635049 C393.891873,263.073418 383.000608,273.964666 369.562239,273.975452 L223.228576,274.092903 C209.774923,274.103701 198.85983,263.206115 198.849031,249.752463 C198.849021,249.739416 198.849021,249.726369 198.849031,249.713322 L198.966409,103.747822 C198.977215,90.3094526 209.86848,79.4182046 223.306849,79.4074186 Z" transform="rotate(-69.81 296.435 176.691)"/>
    </g>
    <g transform="translate(.8)">
      <path fill="#FFF" d="M52.2518808,28.0471593 L198.200009,27.9652529 C211.653663,27.9577026 222.566126,38.8579238 222.573676,52.3115781 C222.573681,52.3206861 222.573681,52.329794 222.573676,52.3389019 L222.491734,198.543944 C222.484199,211.986929 211.588393,222.882743 198.145408,222.890288 L52.19728,222.972194 C38.7436257,222.979744 27.8311632,212.079523 27.823613,198.625869 C27.8236079,198.616761 27.8236079,198.607653 27.823613,198.598545 L27.9055555,52.3935026 C27.9130898,38.9505176 38.8088957,28.0547036 52.2518808,28.0471593 Z" transform="rotate(-20.19 125.199 125.469)"/>
      <path fill="#FFF" d="M52.2518808,28.0471593 L198.200009,27.9652529 C211.653663,27.9577026 222.566126,38.8579238 222.573676,52.3115781 C222.573681,52.3206861 222.573681,52.329794 222.573676,52.3389019 L222.491734,198.543944 C222.484199,211.986929 211.588393,222.882743 198.145408,222.890288 L52.19728,222.972194 C38.7436257,222.979744 27.8311632,212.079523 27.823613,198.625869 C27.8236079,198.616761 27.8236079,198.607653 27.823613,198.598545 L27.9055555,52.3935026 C27.9130898,38.9505176 38.8088957,28.0547036 52.2518808,28.0471593 Z" transform="rotate(-20.19 125.199 125.469)"/>
      <path fill="#F42AC4" d="M171.438941 132.887154C171.646817 131.722394 172.009891 130.590872 172.518431 129.522922L115.145558 81.943073C114.211342 82.635797 113.18959 83.2014276 112.106994 83.6251889 111.007952 84.0116243 109.867296 84.2670363 108.708601 84.3861461L96.3144612 157.998741C97.391822 158.475592 98.4003655 159.095237 99.3130435 159.841058 100.208337 160.591172 100.989539 161.468175 101.631947 162.444332L171.438941 136.411587C171.279431 135.242209 171.279431 134.056532 171.438941 132.887154L171.438941 132.887154zM103.591021 167.931234C103.612349 168.104128 103.612349 168.278995 103.591021 168.451889L136.055671 173.938791C137.425665 170.885991 139.982491 168.52732 143.132325 167.410579 146.389059 166.210499 149.998252 166.428297 153.087618 168.011335L173.917769 142.579345 173.437996 141.898489 103.591021 167.931234zM102.391588 83.3047859L81.4015123 108.736776C83.3834203 111.443648 84.190718 114.837286 83.6404537 118.148615 83.0876223 121.423505 81.206168 124.323066 78.4429112 126.15869L89.9174858 157.077582 90.4372401 157.077582 102.83138 83.3047859 102.391588 83.3047859zM155.926276 91.0345088C153.340549 88.9267256 151.747174 85.8360266 151.528355 82.5037783L119.143667 77.0168766C119.143667 77.0168766 119.143667 77.2972292 119.143667 77.4173804L176.276654 124.997229 176.676465 124.716877 165.20189 93.7979849C161.862693 94.1881694 158.509881 93.189269 155.926276 91.0345088z"/>
      <path fill="#F42AC4" d="M66.0087902,216.752645 L164.962004,204.737531 L223.414367,183.190428 C227.293104,181.76586 230.44667,178.853951 232.179318,175.09713 C233.911967,171.34031 234.081315,167.047303 232.65,163.165239 L182.753592,27.2342569 C181.331488,23.3487982 178.424616,20.189768 174.674294,18.454117 C170.923972,16.718466 166.638391,16.5488247 162.763043,17.9826196 L120.662949,33.3219144 L27.1871456,67.8052897 C19.1413406,70.8071708 15.0180962,79.7474076 17.9515123,87.8304786 L65.2091682,216.952897 L66.0087902,216.752645 Z M59.1720227,113.903275 C60.3127432,107.170207 66.6825805,102.635484 73.405293,103.770529 C74.571849,103.963203 75.7035567,104.327596 76.7637051,104.851889 L97.8337429,79.2997481 C97.1186609,78.3500489 96.5524103,77.2966185 96.1545369,76.1758186 C94.0681309,71.9411955 94.5782003,66.8849948 97.4681646,63.1541292 C100.358129,59.4232635 105.120753,57.6725589 109.733781,58.6453818 C114.346809,59.6182046 118.00058,63.1438092 119.143667,67.7251889 C119.568512,68.8423262 119.824546,70.0167223 119.903308,71.2095718 L152.327977,76.6964736 C152.786828,75.5960571 153.406666,74.5702027 154.167108,73.6526448 C156.894422,69.9957589 161.409853,68.139731 165.915258,68.8236718 C170.420663,69.5076125 174.184404,72.620456 175.707679,76.9226004 C177.230953,81.2247448 176.266394,86.0175601 173.19811,89.3924433 C172.447966,90.3254155 171.557782,91.1360761 170.559357,91.795466 L182.073913,122.674307 C183.226483,122.495352 184.399698,122.495352 185.552268,122.674307 C191.973026,124.079095 196.171946,130.273608 195.107042,136.770115 C194.042137,143.266622 188.086216,147.790785 181.554159,147.064987 C180.25456,146.838711 178.999352,146.406063 177.835917,145.783375 L157.005766,171.015113 C157.822904,172.05458 158.470619,173.217079 158.924858,174.459446 C160.460374,178.594638 159.676968,183.23632 156.869739,186.636016 C154.062511,190.035712 149.657947,191.676928 145.315202,190.941432 C140.972458,190.205936 137.3513,187.205469 135.815784,183.070277 C135.388389,181.967787 135.132202,180.80619 135.056144,179.625945 L102.671456,174.219144 C100.746318,178.621995 96.4434317,181.503678 91.6460966,181.602929 C86.8487614,181.70218 82.4307698,179.000921 80.3258023,174.681448 C78.2208348,170.361974 78.8122925,165.211041 81.8413043,161.483123 C82.5872132,160.572081 83.4628422,159.775902 84.4400756,159.120151 L72.9655009,128.24131 C71.7847383,128.400803 70.5879461,128.400803 69.4071834,128.24131 C66.1408644,127.721833 63.2188447,125.912147 61.2951356,123.217298 C59.3714264,120.522449 58.6066654,117.167469 59.1720227,113.903275 Z"/>
      <path fill="#F42AC4" d="M163.122873,18.3831234 L27.1871456,68.4060453 C23.3084082,69.8306135 20.1548426,72.742523 18.422194,76.4993434 C16.6895454,80.2561637 16.5201976,84.5491709 17.9515123,88.4312343 L33.4641777,130.604282 L67.8879017,224.362217 C70.8684396,232.437831 79.7980762,236.588362 87.8784499,233.653904 L199.585633,191.721159 C198.3862,185.273048 215.578072,179.986398 215.578072,179.706045 L204.463327,86.2284635 L183.113422,27.6347607 C181.691318,23.749302 178.784445,20.5902718 175.034124,18.8546208 C171.283802,17.1189698 166.998221,16.9493285 163.122873,18.3831234 Z M136.975236,55.2695214 L138.094707,55.5098237 L171.119093,55.5098237 C182.424539,55.5098237 191.589414,64.6905801 191.589414,76.0156171 L215.578072,167.650882 C215.578072,178.985139 182.433743,195.686146 171.119093,195.686146 L76.1240076,195.686146 C64.911584,195.686917 55.7850818,186.651737 55.6536862,175.420655 L55.6536862,76.0556675 C55.6536862,70.6171929 57.8103746,65.4014641 61.6493045,61.5558819 C65.4882344,57.7102997 70.6949408,55.5498741 76.1240076,55.5498741 L131.617769,55.5498741 C133.363162,55.0745415 135.189903,54.9789494 136.975236,55.2695214 Z"/>
    </g>
    <g transform="translate(171.919 51.264)">
      <path fill="#FFF" d="M52.0709494,28.0564428 L198.404613,27.9389917 C211.858265,27.9281934 222.773359,38.8257797 222.784157,52.2794319 C222.784167,52.2924788 222.784167,52.3055258 222.784157,52.3185728 L222.66678,198.284073 C222.655973,211.722442 211.764709,222.61369 198.32634,222.624476 L51.9926762,222.741927 C38.539024,222.752726 27.6239303,211.855139 27.6131321,198.401487 C27.6131216,198.38844 27.6131216,198.375393 27.6131321,198.362346 L27.7305092,52.396846 C27.7413156,38.9584768 38.6325801,28.0672287 52.0709494,28.0564428 Z" transform="rotate(-69.81 125.199 125.34)"/>
      <path fill="#00A1E0" d="M27.1871456,183.007006 L85.6794896,204.57025 L184.592722,216.594363 L185.432325,216.594363 L232.689981,87.7359477 C235.619362,79.6355086 231.476011,70.6836979 223.414367,67.6957586 L129.81862,33.1464727 L87.7185255,17.6353664 C83.8431776,16.2004974 79.5575967,16.3702658 75.8072751,18.1072169 C72.0569535,19.844168 69.1500811,23.0055646 67.7279773,26.8939337 L17.7915879,162.966817 C16.3681215,166.872409 16.5598577,171.186212 18.32418,174.949411 C20.0885024,178.71261 23.2792212,181.613391 27.1871456,183.007006 L27.1871456,183.007006 Z"/>
      <path fill="#00A1E0" d="M147.610208 83.1667846L160.044329 156.8746 160.524102 156.8746 172.038658 125.932548C169.278153 124.03369 167.40458 121.09301 166.846863 117.783728 166.289145 114.474446 167.095042 111.079946 169.080057 108.377342L148.089981 83.1667846 147.610208 83.1667846zM79.1625709 136.313366L148.969565 162.365612C149.624182 161.385952 150.418984 160.508148 151.32845 159.760387 152.235137 159.005584 153.244897 158.384726 154.327032 157.91669L141.932892 84.2489548C140.773525 84.1339278 139.632378 83.8782144 138.534499 83.4874276 137.431594 83.0805273 136.394329 82.5133416 135.455955 81.8040517L77.9231569 129.419541C78.446543 130.482322 78.8103061 131.61684 79.0026465 132.786293 79.2354305 133.946884 79.289365 135.13639 79.1625709 136.313366zM77.0435728 141.804378C76.8930359 142.048042 76.7189456 142.276263 76.5238185 142.485744L97.3939509 167.776463C100.438704 166.231636 103.982976 166.009175 107.196163 167.161216 110.409351 168.313257 113.009013 170.738533 114.385917 173.86868L146.810586 168.377668C146.810586 168.377668 146.810586 168.016945 146.810586 167.856624L77.0435728 141.804378zM73.7651229 124.609896L74.2049149 124.890458 131.65775 77.274969 131.457845 76.8741652 99.1531191 82.365177C98.8817025 85.7009098 97.2751438 88.7845183 94.6993433 90.9136981 92.1235428 93.0428779 88.7978064 94.0363487 85.4795841 93.6678437L73.7651229 124.609896z"/>
      <path fill="#00A1E0" d="M67.5280718,27.455059 L46.018242,86.0926522 L34.9034972,179.640255 C34.9034972,179.920817 52.0953686,185.211427 50.8959357,191.664368 L162.563138,233.628524 C170.643512,236.56518 179.573148,232.411539 182.553686,224.329876 L216.97741,130.501711 L232.450095,88.297073 C233.881409,84.4121018 233.712061,80.1158788 231.979413,76.3562443 C230.246764,72.5966099 227.093199,69.6825192 223.214461,68.2568839 L87.51862,18.1964917 C83.6432721,16.7616227 79.3576912,16.9313911 75.6073696,18.6683422 C71.857048,20.4052933 68.9501757,23.5666899 67.5280718,27.455059 Z M118.8638,55.5113237 L174.357561,55.5113237 C185.663008,55.5113237 194.827883,64.6989571 194.827883,76.0324773 L194.827883,175.351654 C194.827883,186.685174 185.663008,195.872808 174.357561,195.872808 L79.3624764,195.872808 C68.0478261,195.872808 34.9034972,179.15929 34.9034972,167.816543 L58.892155,76.112638 C58.892155,64.7791179 68.0570301,55.5914844 79.3624764,55.5914844 L112.386862,55.5914844 L113.506333,55.3510022 C115.274601,54.9814936 117.10123,54.995159 118.8638,55.3910826 L118.8638,55.5113237 Z"/>
      <path fill="#FFF" d="M125.540643,86.172813 C132.147452,82.9234911 139.797831,82.5465464 146.690643,85.1307231 C155.883198,88.6116635 162.486612,96.7944859 163.962476,106.533645 C177.327536,106.033669 189.691582,113.606601 195.34696,125.756526 C201.002338,137.906451 198.849113,152.270283 189.881285,162.2172 C180.913456,172.164118 166.875211,175.759507 154.24707,171.343616 C152.205586,170.560431 150.238575,169.594604 148.369849,168.457829 C141.739161,174.141553 132.553146,175.768445 124.381191,172.706349 C120.874838,171.398209 117.715057,169.30017 115.145558,166.574051 C107.387796,174.811719 95.3982509,177.463982 84.9027575,173.264201 C74.4072642,169.06442 67.5350426,158.864605 67.5680529,147.535872 C65.8278528,147.241325 64.1158149,146.798845 62.4504726,146.213219 C51.5849384,142.006395 44.8556054,131.047624 46.0025947,119.427721 C47.149584,107.807818 55.8908891,98.3837314 67.3681474,96.3933094 C66.5741211,81.3338322 77.1203696,68.0504923 91.937676,65.4471962 C106.754982,62.8439002 121.178753,71.7401842 125.540643,86.172813"/>
      <path fill="#00A1E0" d="M71.1663516 112.906425C70.9664461 113.146907 71.1663516 113.227068 71.1663516 113.267149 71.3597666 113.549656 71.5735716 113.817576 71.8060491 114.068756 72.8919117 115.268782 74.2693577 116.166345 75.8041588 116.673981 76.9333787 117.30519 78.2810371 117.411351 79.4947448 116.964707 80.7084526 116.518062 81.6675216 115.563024 82.121172 114.349319L82.121172 114.349319C83.0007561 112.024657 81.2415879 110.341281 79.5224008 109.058709L79.5224008 109.058709C78.2430057 108.016619 77.123535 107.134851 77.4833648 106.172922L77.4833648 106.172922C77.8032136 105.331234 78.7627599 105.010591 79.9222117 105.451475 81.2066078 105.954328 82.3564731 106.750254 83.2806238 107.776137 83.2806238 107.776137 83.5205104 108.09678 83.7204159 107.776137L84.9198488 106.373324C84.9198488 106.373324 84.9198488 106.092761 84.9198488 105.97252 83.9168591 104.752186 82.6049899 103.824676 81.1216446 103.287134L80.8417769 103.287134C79.7477149 102.726318 78.4683204 102.654596 77.3187077 103.089633 76.169095 103.524671 75.2561139 104.426033 74.8046314 105.571716L74.8046314 105.571716C73.8850662 108.016619 75.6842155 109.579754 77.4034026 110.902406L77.6832703 111.102808C78.9626654 112.064737 80.042155 112.906425 79.642344 113.908435L79.642344 113.908435C79.3224953 114.830283 78.2430057 115.191007 76.9636106 114.750123 75.6276377 114.245272 74.4627271 113.369419 73.6051985 112.225059L73.2053875 111.744094C73.1672538 111.656411 73.0809087 111.599721 72.9854915 111.599721 72.8900743 111.599721 72.8037292 111.656411 72.7655955 111.744094L71.6061437 113.106827 71.1663516 112.906425zM114.425898 129.018737C114.225992 129.018737 114.425898 129.2993 114.425898 129.33938 114.619313 129.621888 114.833118 129.889808 115.065595 130.140988 116.144105 131.349642 117.524023 132.248816 119.063705 132.746212 120.192925 133.377421 121.540583 133.483583 122.754291 133.036938 123.967999 132.590294 124.927068 131.635256 125.380718 130.42155L125.380718 130.42155C126.260302 128.096888 124.501134 126.413513 122.781947 125.13094L122.582042 125.13094C121.302647 124.088851 120.183176 123.207082 120.543006 122.245153L120.543006 122.245153C120.862854 121.403465 121.822401 121.082822 122.981853 121.523706 124.258964 122.040215 125.405957 122.834153 126.340265 123.848368 126.340265 123.848368 126.580151 124.169011 126.780057 123.848368L127.97949 122.445555C127.97949 122.445555 127.97949 122.164992 127.97949 122.044751 126.9765 120.824418 125.664631 119.896907 124.181285 119.359366L123.901418 119.359366C122.807356 118.79855 121.527961 118.726828 120.378349 119.161865 119.228736 119.596902 118.315755 120.498265 117.864272 121.643948L117.864272 121.643948C116.944707 124.088851 118.743856 125.651985 120.463043 126.974638L120.742911 127.17504C122.022306 128.136969 123.101796 128.978657 122.701985 129.980666L122.701985 129.980666C122.342155 130.902515 121.302647 131.303319 120.023251 130.822354 118.684887 130.301746 117.511013 129.429538 116.624858 128.29729L116.265028 127.816326C116.211963 127.748756 116.130917 127.709316 116.045132 127.709316 115.959348 127.709316 115.878302 127.748756 115.825236 127.816326L114.665784 129.219139 114.425898 129.018737zM145.691115 135.030794C145.323946 136.224565 144.614885 137.283828 143.652079 138.076903 142.840367 138.675948 141.76737 138.783514 140.853403 138.357465 139.870486 138.096918 139.114722 137.308353 138.894329 136.313366 138.682966 135.080615 138.835838 133.812808 139.334121 132.666052 139.709651 131.476298 140.417228 130.419251 141.373157 129.619943 142.184869 129.020898 143.257866 128.913332 144.171834 129.33938 145.15475 129.599928 145.910514 130.388493 146.130907 131.383479 146.339931 132.616288 146.18714 133.883422 145.691115 135.030794M149.12949 133.267257C149.208979 132.412238 149.099779 131.550159 148.809641 130.742193 148.527463 129.926087 148.062436 129.185681 147.450284 128.577853 146.032595 127.227973 144.125703 126.518354 142.172779 126.613914 141.33142 126.682471 140.513976 126.928313 139.773913 127.335361 139.026178 127.776089 138.373731 128.362024 137.85482 129.058818 137.292708 129.836791 136.835631 130.685831 136.495463 131.583881 136.148135 132.481209 135.94569 133.428297 135.895747 134.389508 135.81933 135.257626 135.928369 136.132102 136.215595 136.954652 136.508025 137.754012 136.972085 138.479196 137.574953 139.078912 138.271077 139.744594 139.103243 140.250604 140.0138 140.561886 140.919734 140.906042 141.88402 141.069424 142.852457 141.042851 143.693816 140.974294 144.511261 140.728452 145.251323 140.321404 145.990833 139.869485 146.64131 139.285319 147.170416 138.597948 147.740632 137.825106 148.198332 136.974909 148.529773 136.072884 148.858265 135.170013 149.060098 134.225787 149.12949 133.267257M166.801134 147.616033C166.813008 147.545652 166.793081 147.473621 166.746742 147.419425 166.700404 147.365229 166.632444 147.33447 166.561248 147.33547 166.135657 147.374195 165.707443 147.374195 165.281853 147.33547 164.819421 147.219105 164.365285 147.071814 163.922495 146.894586 162.855217 146.571163 161.97114 145.815653 161.483648 144.810406 161.01488 143.598516 161.01488 142.254741 161.483648 141.042851 161.849914 139.860166 162.612617 138.840703 163.642628 138.157063 164.596109 137.565974 165.780923 137.490799 166.801134 137.956661 167.68927 138.287314 168.524385 138.746417 169.279962 139.319394 169.279962 139.319394 169.279962 139.319394 169.599811 139.319394L170.839225 137.876501C170.926549 137.772193 170.926549 137.620085 170.839225 137.515777 170.367662 137.138662 169.873649 136.790656 169.359924 136.473687 168.781778 136.160266 168.180259 135.892261 167.560775 135.67208 166.623678 135.289059 165.611989 135.124594 164.602174 135.191115 163.72246 135.227548 162.861944 135.460327 162.083365 135.872482 161.322503 136.310637 160.656481 136.896556 160.124291 137.595938 159.513345 138.333699 159.03939 139.175361 158.724953 140.080922 158.029524 141.858715 158.029524 143.83422 158.724953 145.612014 159.497319 147.329636 160.944659 148.649986 162.723062 149.259328 163.914884 149.691878 165.17381 149.909005 166.441304 149.900614 166.502037 149.901847 166.560035 149.875329 166.598923 149.828548 166.637812 149.781766 166.653371 149.719795 166.64121 149.660132L166.64121 147.776354 166.801134 147.616033zM173.158129 143.688156C173.494456 143.018785 173.971929 142.430719 174.557467 141.964699 175.386128 141.376628 176.457703 141.255587 177.396125 141.644056 178.349335 141.951731 179.065924 142.746522 179.275236 143.728236 179.449717 144.439081 179.449717 145.181732 179.275236 145.892576L173.318053 143.688156 173.158129 143.688156zM182.073913 145.050888C182.154196 144.248395 182.044615 143.438232 181.754064 142.686146 181.484872 142.02604 181.106391 141.416257 180.634594 140.882529 179.982865 140.287872 179.222601 139.825137 178.395652 139.519796 177.471634 139.140082 176.473679 138.975627 175.477032 139.038832 174.609403 139.10223 173.764809 139.348044 172.998204 139.760278 172.257422 140.22699 171.607204 140.824502 171.079112 141.523815 170.508895 142.296657 170.051195 143.146854 169.719754 144.048879 169.376253 144.947349 169.173939 145.893824 169.120038 146.854505 169.066638 147.72848 169.203047 148.603663 169.519849 149.41965 169.877802 150.255944 170.425387 150.997019 171.119093 151.58399 171.958997 152.298484 172.920625 152.855169 173.95775 153.227286 175.370115 153.827603 176.906757 154.075177 178.435633 153.948732 178.435633 153.948732 178.67552 153.948732 178.67552 153.588009L178.67552 151.824472C178.67552 151.691658 178.568119 151.58399 178.435633 151.58399 177.187214 151.633738 175.943658 151.400848 174.797353 150.902624 173.729906 150.60755 172.83233 149.881901 172.318526 148.898605 171.915633 147.881795 171.915633 146.749065 172.318526 145.732255L180.634594 148.858524C180.634594 148.858524 180.87448 148.858524 180.954442 148.858524 181.553998 147.71306 181.92091 146.459735 182.033932 145.17113L182.073913 145.050888zM106.46966 118.838321C106.830377 118.173629 107.319691 117.58772 107.908979 117.114865 108.719441 116.518774 109.783933 116.396816 110.707656 116.794222 111.675481 117.078895 112.401756 117.884429 112.586767 118.878401 112.784752 119.586198 112.784752 120.334946 112.586767 121.042742L106.629584 118.838321 106.46966 118.838321zM115.425425 120.201054C115.475174 119.396097 115.352483 118.58979 115.065595 117.836312 114.811285 117.168692 114.431221 116.556358 113.946125 116.032695 113.309327 115.438346 112.562168 114.97532 111.747164 114.669962 110.809318 114.289619 109.798245 114.125255 108.788563 114.188997 107.915536 114.25199 107.06807 114.512342 106.309735 114.950524 105.56136 115.390373 104.908752 115.976453 104.390643 116.673981 103.859098 117.466268 103.441839 118.329845 103.151229 119.239125 102.807727 120.137595 102.605414 121.08407 102.551512 122.044751 102.492485 122.922696 102.643256 123.80209 102.991304 124.609896 103.333863 125.44433 103.86811 126.185893 104.550567 126.774236 105.390471 127.48873 106.3521 128.045415 107.389225 128.417531 108.814692 129.021191 110.365078 129.268769 111.907089 129.138978 111.907089 129.138978 112.106994 129.138978 112.106994 128.778255L112.106994 127.014718C112.106994 126.774236 111.827127 126.774236 111.827127 126.774236 110.578707 126.823984 109.335151 126.591094 108.188847 126.09287 107.121399 125.797796 106.223824 125.072147 105.710019 124.088851 105.307126 123.07204 105.307126 121.939311 105.710019 120.922501L114.026087 124.04877C114.134658 124.122819 114.277346 124.122819 114.385917 124.04877 114.993642 122.906635 115.361053 121.651607 115.465406 120.361375L115.425425 120.201054zM86.4791115 117.595829C86.3142122 117.401093 86.2038369 117.165963 86.1592628 116.914463 86.0535434 116.534267 86.0535434 116.132328 86.1592628 115.752132 86.3554997 115.106335 86.8688527 114.606843 87.51862 114.42948 88.4044161 114.219125 89.3352981 114.3181 90.1573724 114.710042 90.8946731 115.019412 91.6153184 115.367251 92.3163516 115.752132L90.9170132 119.559768 90.9170132 119.559768C90.9170132 119.559768 89.7975425 119.559768 88.5581285 118.998643 87.6643558 118.824923 86.8666057 118.325091 86.3191871 117.595829M91.7965974 112.986586L90.5172023 112.465541C89.8234503 112.197695 89.0975623 112.02251 88.3582231 111.944496 87.6823656 111.842318 86.9950446 111.842318 86.3191871 111.944496 85.6855408 112.121466 85.0985671 112.436208 84.6 112.866345 84.0847704 113.358154 83.6882294 113.961296 83.4405482 114.629881 83.1706691 115.27531 83.0609177 115.976712 83.1206994 116.673981 83.1564033 117.293284 83.3641288 117.890243 83.7204159 118.397437 84.0884354 118.957299 84.5811583 119.423804 85.1597353 119.76017 85.8156677 120.202244 86.5285349 120.552821 87.2787335 120.80226 88.1212048 121.121768 88.9910947 121.363259 89.8775047 121.523706 90.7570888 121.724108 91.8365784 121.88443 92.1164461 121.92451L92.7561437 121.92451C92.8963542 121.925951 93.0159876 121.823153 93.0360113 121.684028L95.8746692 114.068756C96.4511323 112.795236 96.4511323 111.334239 95.8746692 110.060718 95.086279 108.815429 93.8816497 107.891955 92.476276 107.455494 91.7217548 107.189396 90.9459781 106.988265 90.1573724 106.854288 89.1908134 106.697143 88.2053113 106.697143 87.2387524 106.854288 87.2387524 106.854288 87.0388469 106.854288 87.2387524 107.174931L87.2387524 108.978548C87.1854442 109.049802 87.1854442 109.147776 87.2387524 109.21903L87.2387524 109.21903C88.5905218 109.0826 89.9556693 109.246825 91.236862 109.699995 91.9709214 109.940941 92.6130969 110.402776 93.0759924 111.022647 93.3958412 111.543692 93.4358223 112.144898 93.0759924 113.267149L93.0759924 113.627872C92.6485331 113.377513 92.2081217 113.150071 91.7566163 112.946506M160.684026 133.708141C160.735662 133.66249 160.765243 133.596798 160.765243 133.52778 160.765243 133.458761 160.735662 133.393069 160.684026 133.347418 160.276041 133.04183 159.833113 132.786177 159.36465 132.585891 158.657472 132.238871 157.870932 132.086705 157.085728 132.145007 156.464571 132.165216 155.858933 132.344599 155.32656 132.666052L155.686389 131.623962C155.767837 131.532674 155.767837 131.394606 155.686389 131.303319L153.567391 130.501711C153.47633 130.420061 153.338604 130.420061 153.247543 130.501711L148.449811 143.287352C148.382886 143.383704 148.382886 143.511642 148.449811 143.607995L150.648771 144.449683C150.744885 144.516774 150.872506 144.516774 150.96862 144.449683L153.287524 138.237224C153.556546 137.486331 153.919256 136.772577 154.367013 136.112964 154.693675 135.720306 155.103382 135.405416 155.566446 135.191115 155.948752 134.995552 156.378375 134.912192 156.80586 134.950633 157.216521 134.960788 157.622326 135.04215 158.005293 135.191115 158.380231 135.17787 158.75551 135.204742 159.124764 135.271276 159.170302 135.32304 159.235831 135.352694 159.304679 135.352694 159.373526 135.352694 159.439055 135.32304 159.484594 135.271276L160.763989 133.748222"/>
      <path fill="#00A1E0" d="M142.292722 120.281215L141.573062 119.76017 140.453592 119.239125C139.179969 118.676528 137.729104 118.676528 136.455482 119.239125 135.139367 119.947582 134.0666 121.03698 133.376938 122.365394L133.057089 122.92652 131.137996 122.205073C131.029425 122.131025 130.886738 122.131025 130.778166 122.205073L129.81862 123.848368C129.81862 123.848368 129.81862 124.128931 129.81862 124.209092L131.65775 124.890458 125.940454 134.67007C125.563255 135.317561 125.13545 135.934058 124.661059 136.513768 124.380676 136.885341 124.043315 137.210012 123.661531 137.475697 123.368658 137.682036 123.019962 137.793896 122.662004 137.79634 122.30264 137.789108 121.94868 137.707222 121.622495 137.555858 121.394478 137.481622 121.17885 137.37354 120.982798 137.235215L120.582987 136.954652C120.491926 136.873002 120.354199 136.873002 120.263138 136.954652L118.983743 138.437626C118.932107 138.483277 118.902526 138.548969 118.902526 138.617988 118.902526 138.687006 118.932107 138.752698 118.983743 138.798349 119.187216 139.000371 119.415628 139.175474 119.663422 139.319394 120.020061 139.562952 120.410808 139.752057 120.822873 139.88052 121.512134 140.150014 122.242357 140.299132 122.981853 140.321404 123.651639 140.324763 124.311534 140.15938 124.900945 139.840439 125.743635 139.568718 126.510651 139.101873 127.139887 138.477706 127.805752 137.694565 128.394859 136.848976 128.899055 135.952643L134.736295 126.012709 137.455009 127.014718C137.571861 127.108506 137.737969 127.108506 137.85482 127.014718L138.774386 125.411503C138.774386 125.411503 138.774386 125.09086 138.774386 125.010699L136.135633 124.04877C136.428901 123.425939 136.805528 122.846111 137.255104 122.325314 137.509976 122.035408 137.823429 121.803149 138.174669 121.643948 138.449273 121.566991 138.739669 121.566991 139.014272 121.643948 139.331665 121.587755 139.656426 121.587755 139.973819 121.643948 140.201836 121.718183 140.417464 121.826265 140.613516 121.964591L141.013327 122.205073C141.253214 122.405475 141.333176 122.205073 141.413138 122.205073L142.692533 120.722099C142.761499 120.688614 142.805302 120.618556 142.805302 120.541737 142.805302 120.464919 142.761499 120.39486 142.692533 120.361375M98.4334594 124.489654C98.3248882 124.563703 98.1822007 124.563703 98.0736295 124.489654L95.8746692 123.647966C95.8077442 123.551614 95.8077442 123.423676 95.8746692 123.327323L102.511531 105.491555C102.602592 105.409905 102.740319 105.409905 102.83138 105.491555L105.03034 106.333243C105.111788 106.42453 105.111788 106.562599 105.03034 106.653886L98.4334594 124.489654 98.4334594 124.489654z"/>
    </g>
  </g>
</svg>
