<svg width="131" height="34" viewBox="0 0 131 34" fill="none" xmlns="http://www.w3.org/2000/svg">
<path d="M41.9074 26.1L43.5436 22.2998C45.3117 23.6194 47.6604 24.3055 49.9828 24.3055C51.6981 24.3055 52.7801 23.6457 52.7801 22.6429C52.7537 19.8456 42.5144 22.0359 42.4352 15.0162C42.4088 11.4535 45.5756 8.70898 50.0619 8.70898C52.7273 8.70898 55.3927 9.36874 57.2928 10.873L55.7622 14.7523C54.0204 13.6439 51.8564 12.8522 49.798 12.8522C48.3994 12.8522 47.4757 13.512 47.4757 14.3565C47.5021 17.101 57.8206 15.5968 57.9262 22.2998C57.9262 25.9417 54.8385 28.5015 50.405 28.5015C47.159 28.5015 44.177 27.7362 41.9074 26.1Z" fill="white"/>
<path d="M104.689 20.9276C103.871 22.3526 102.341 23.3291 100.572 23.3291C97.9599 23.3291 95.8487 21.2179 95.8487 18.6052C95.8487 15.9926 97.9599 13.8814 100.572 13.8814C102.341 13.8814 103.871 14.8579 104.689 16.2829L109.202 13.7759C107.513 10.7674 104.267 8.70898 100.572 8.70898C95.1097 8.70898 90.6762 13.1425 90.6762 18.6052C90.6762 24.068 95.1097 28.5015 100.572 28.5015C104.293 28.5015 107.513 26.4695 109.202 23.4346L104.689 20.9276Z" fill="white"/>
<path d="M65.843 0.501465H60.1956V28.1318H65.843V0.501465Z" fill="white"/>
<path d="M111.419 0.501465V28.1318H117.066V19.8454L123.769 28.1318H131L122.476 18.2883L130.367 9.10461H123.452L117.066 16.7313V0.501465H111.419Z" fill="white"/>
<path d="M82.6271 20.9803C81.809 22.3262 80.1201 23.3291 78.22 23.3291C75.6074 23.3291 73.4962 21.2179 73.4962 18.6052C73.4962 15.9926 75.6074 13.8814 78.22 13.8814C80.1201 13.8814 81.809 14.937 82.6271 16.3093V20.9803ZM82.6271 9.10483V11.348C81.7034 9.79098 79.4075 8.70898 77.006 8.70898C72.0447 8.70898 68.139 13.0897 68.139 18.5789C68.139 24.068 72.0447 28.5015 77.006 28.5015C79.4075 28.5015 81.7034 27.4195 82.6271 25.8625V28.1057H88.2746V9.10483H82.6271Z" fill="white"/>
<path d="M6.99364 20.9537C6.99364 22.8802 5.43663 24.4372 3.51016 24.4372C1.58368 24.4372 0.0266724 22.8802 0.0266724 20.9537C0.0266724 19.0272 1.58368 17.4702 3.51016 17.4702H6.99364V20.9537Z" fill="#E01E5A"/>
<path d="M8.73523 20.9537C8.73523 19.0272 10.2922 17.4702 12.2187 17.4702C14.1452 17.4702 15.7022 19.0272 15.7022 20.9537V29.6624C15.7022 31.5889 14.1452 33.1459 12.2187 33.1459C10.2922 33.1459 8.73523 31.5889 8.73523 29.6624V20.9537Z" fill="#E01E5A"/>
<path d="M12.2187 6.96697C10.2922 6.96697 8.73523 5.40996 8.73523 3.48348C8.73523 1.55701 10.2922 0 12.2187 0C14.1452 0 15.7022 1.55701 15.7022 3.48348V6.96697H12.2187Z" fill="#36C5F0"/>
<path d="M12.2186 8.73535C14.1451 8.73535 15.7021 10.2924 15.7021 12.2188C15.7021 14.1453 14.1451 15.7023 12.2186 15.7023H3.48348C1.55701 15.7023 0 14.1453 0 12.2188C0 10.2924 1.55701 8.73535 3.48348 8.73535H12.2186Z" fill="#36C5F0"/>
<path d="M26.1789 12.2188C26.1789 10.2924 27.7359 8.73535 29.6624 8.73535C31.5889 8.73535 33.1459 10.2924 33.1459 12.2188C33.1459 14.1453 31.5889 15.7023 29.6624 15.7023H26.1789V12.2188Z" fill="#2EB67D"/>
<path d="M24.4374 12.2186C24.4374 14.1451 22.8804 15.7021 20.9539 15.7021C19.0274 15.7021 17.4704 14.1451 17.4704 12.2186V3.48348C17.4704 1.55701 19.0274 0 20.9539 0C22.8804 0 24.4374 1.55701 24.4374 3.48348V12.2186Z" fill="#2EB67D"/>
<path d="M20.9536 26.1787C22.8801 26.1787 24.4371 27.7357 24.4371 29.6622C24.4371 31.5887 22.8801 33.1457 20.9536 33.1457C19.0272 33.1457 17.4702 31.5887 17.4702 29.6622V26.1787H20.9536Z" fill="#ECB22E"/>
<path d="M20.954 24.4372C19.0275 24.4372 17.4705 22.8802 17.4705 20.9537C17.4705 19.0272 19.0275 17.4702 20.954 17.4702H29.6891C31.6156 17.4702 33.1726 19.0272 33.1726 20.9537C33.1726 22.8802 31.6156 24.4372 29.6891 24.4372H20.954Z" fill="#ECB22E"/>
</svg>
