<svg width="468" height="397" viewBox="0 0 468 397" fill="none" xmlns="http://www.w3.org/2000/svg">
<g style="mix-blend-mode:multiply" opacity="0.25">
<path d="M234 397C266.465 397 292.783 394.215 292.783 390.779C292.783 387.343 266.465 384.558 234 384.558C201.535 384.558 175.217 387.343 175.217 390.779C175.217 394.215 201.535 397 234 397Z" fill="#413857"/>
</g>
<path d="M388.549 307.777C381.006 314.776 361.72 365.499 234 360.154C106.28 365.51 86.9937 314.786 79.4513 307.777C73.6993 302.443 71.2885 296.934 74.5536 292.551C94.6885 265.363 165.433 283.851 234 305.058C302.567 283.851 373.312 265.363 393.446 292.551C396.712 296.945 394.301 302.454 388.549 307.777Z" fill="#413857"/>
<g style="mix-blend-mode:multiply" opacity="0.25">
<path d="M394.295 300.034C394.068 299.521 393.783 299.036 393.446 298.587C373.311 271.399 302.567 295.325 234 316.532C165.433 295.325 94.6885 271.399 74.5536 298.587C74.217 299.036 73.9322 299.521 73.7047 300.034C72.7034 297.364 72.883 294.814 74.5536 292.562C94.6885 265.374 165.433 283.862 234 305.069C302.567 283.862 373.311 265.374 393.446 292.562C395.117 294.814 395.297 297.364 394.295 300.034Z" fill="#413857"/>
</g>
<path d="M292.772 214.433L276.446 294.498C274.705 302.84 254.363 307.125 234.033 307.152C213.702 307.179 193.355 302.84 191.613 294.498L175.288 214.433H292.772Z" fill="#FFD0C0"/>
<g style="mix-blend-mode:multiply" opacity="0.5">
<path d="M234 296.233C235.656 296.233 236.998 294.891 236.998 293.237C236.998 291.582 235.656 290.24 234 290.24C232.344 290.24 231.002 291.582 231.002 293.237C231.002 294.891 232.344 296.233 234 296.233Z" fill="#F2DAD6"/>
</g>
<g style="mix-blend-mode:multiply" opacity="0.5">
<path d="M236.999 293.231C236.953 293.993 236.617 294.709 236.061 295.233C235.505 295.756 234.769 296.047 234.005 296.047C233.242 296.047 232.506 295.756 231.95 295.233C231.394 294.709 231.058 293.993 231.012 293.231C231.011 292.957 231.05 292.684 231.127 292.421C231.305 293.048 231.683 293.6 232.204 293.993C232.724 294.386 233.359 294.598 234.011 294.598C234.663 294.598 235.298 294.386 235.818 293.993C236.339 293.6 236.717 293.048 236.895 292.421C236.969 292.685 237.003 292.958 236.999 293.231Z" fill="#F2DAD6"/>
</g>
<g style="mix-blend-mode:multiply" opacity="0.5">
<path d="M292.772 214.433L280.903 272.617C263.751 283.563 255.572 288.424 233.989 288.424C212.407 288.424 204.255 283.579 187.189 272.655L175.299 214.433H292.772Z" fill="#F2DAD6"/>
</g>
<path d="M277.736 288.772L276.447 295.042C274.705 303.383 254.363 307.668 234.033 307.696C213.702 307.723 193.355 303.383 191.613 295.042L190.335 288.772C195.194 296.004 214.616 299.708 234.033 299.735C253.449 299.762 272.877 296.004 277.736 288.772Z" fill="#FFCD5E"/>
<g style="mix-blend-mode:multiply" opacity="0.5">
<path d="M276.953 292.611L276.457 295.042C274.716 303.384 254.374 307.668 234.044 307.696C213.713 307.723 193.366 303.384 191.624 295.042L191.129 292.611C197.034 299.186 215.541 303.634 234.044 303.661C252.546 303.688 271.048 299.186 276.953 292.611Z" fill="#FFCD5E"/>
</g>
<path d="M238.723 296.951H229.364C225.919 296.951 223.127 299.741 223.127 303.182V304.139C223.127 307.581 225.919 310.371 229.364 310.371H238.723C242.168 310.371 244.96 307.581 244.96 304.139V303.182C244.96 299.741 242.168 296.951 238.723 296.951Z" fill="#FFCD5E"/>
<g style="mix-blend-mode:multiply" opacity="0.5">
<path d="M238.723 296.951H229.364C225.919 296.951 223.127 299.741 223.127 303.182V304.139C223.127 307.581 225.919 310.371 229.364 310.371H238.723C242.168 310.371 244.96 307.581 244.96 304.139V303.182C244.96 299.741 242.168 296.951 238.723 296.951Z" fill="#FFCD5E"/>
</g>
<g style="mix-blend-mode:multiply" opacity="0.5">
<path d="M238.724 310.371H229.364C228.544 310.372 227.732 310.212 226.974 309.9C226.216 309.587 225.527 309.128 224.947 308.55C224.366 307.971 223.906 307.283 223.592 306.527C223.278 305.77 223.116 304.959 223.116 304.139V303.182C223.116 301.53 223.773 299.945 224.943 298.776C226.112 297.607 227.699 296.951 229.353 296.951H238.713C239.532 296.951 240.343 297.112 241.099 297.425C241.856 297.738 242.543 298.197 243.122 298.776C243.702 299.355 244.161 300.042 244.474 300.798C244.788 301.554 244.949 302.364 244.949 303.182V304.139C244.949 305.79 244.293 307.374 243.126 308.542C241.959 309.71 240.376 310.368 238.724 310.371ZM242.696 303.791C242.696 302.459 242.166 301.181 241.223 300.239C240.28 299.296 239.001 298.767 237.668 298.767H230.419C229.086 298.767 227.807 299.296 226.864 300.239C225.921 301.181 225.391 302.459 225.391 303.791C225.39 304.451 225.52 305.105 225.772 305.715C226.025 306.325 226.395 306.879 226.862 307.346C227.329 307.813 227.884 308.183 228.494 308.435C229.105 308.687 229.759 308.817 230.419 308.816H237.668C238.329 308.818 238.985 308.69 239.596 308.438C240.208 308.186 240.764 307.817 241.232 307.35C241.7 306.883 242.072 306.328 242.325 305.718C242.578 305.107 242.708 304.452 242.707 303.791H242.696Z" fill="#FFCD5E"/>
</g>
<path d="M408.139 263.188C408.139 268.625 408.058 274.422 404.874 283.307C369.208 296.94 315.726 280.686 283.167 261.714C264.436 273.677 256.502 278.957 234 278.957C211.498 278.957 203.564 273.672 184.833 261.714C152.274 280.697 98.7916 296.951 63.1257 283.307C59.9422 274.422 59.8606 268.625 59.8606 263.188C77.2745 253.944 99.5861 241.437 121.354 230.017C128.896 198.304 137.032 159.239 170.33 127.787C169.046 126.765 167.898 125.797 167.805 125.335C167.789 123.969 167.905 122.605 168.154 121.262C172.616 100.512 197.665 75.585 234 75.585C270.335 75.585 289.507 97.336 295.493 106.036C297.234 108.57 298.758 118.543 297.67 127.787C330.968 159.239 339.104 198.304 346.646 230.017C368.414 241.437 390.725 253.944 408.139 263.188Z" fill="#D6E7F9"/>
<path d="M61.6728 283.307C55.2514 284.297 19.7705 293.095 1.26816 270.8C-0.527656 268.625 -0.908586 265.363 3.4449 266.45C8.9575 267.826 15.4605 268.767 19.2263 268.082C15.9612 261.556 22.3717 253.666 28.4774 251.225C31.1984 250.137 33.4839 252.747 31.1984 254.487C19.7705 263.188 33.9193 270.257 40.4495 264.819C45.4832 260.626 39.3612 254.487 35.5519 255.031C31.2419 255.645 29.9576 250.838 33.3751 249.593C45.3472 245.243 53.51 262.644 58.9518 263.188C58.4076 268.082 59.496 278.413 61.6728 283.307Z" fill="#FFD0C0"/>
<g style="mix-blend-mode:multiply" opacity="0.5">
<path d="M31.563 266.222C34.42 267.152 37.9735 266.885 40.4441 264.83C45.4778 260.637 39.3557 254.498 35.5464 255.042C38.3 254.667 40.7815 255.091 42.4793 256.624C47.5294 261.192 43.633 269.599 31.563 266.222Z" fill="#F2DAD6"/>
</g>
<path d="M406.327 283.307C412.749 284.297 448.229 293.095 466.732 270.8C468.528 268.625 468.909 265.363 464.555 266.45C459.042 267.826 452.539 268.767 448.774 268.082C452.039 261.556 445.628 253.666 439.523 251.225C436.802 250.137 434.516 252.747 436.802 254.487C448.229 263.188 434.081 270.257 427.55 264.819C422.517 260.626 428.639 254.487 432.448 255.031C436.758 255.645 438.042 250.838 434.625 249.593C422.653 245.243 414.49 262.644 409.048 263.188C409.592 268.082 408.504 278.413 406.327 283.307Z" fill="#FFD0C0"/>
<g style="mix-blend-mode:multiply" opacity="0.5">
<path d="M436.437 266.222C433.58 267.152 430.027 266.885 427.556 264.83C422.522 260.637 428.644 254.498 432.454 255.042C429.7 254.667 427.219 255.091 425.521 256.624C420.471 261.192 424.367 269.599 436.437 266.222Z" fill="#F2DAD6"/>
</g>
<g style="mix-blend-mode:multiply" opacity="0.5">
<path d="M56.269 284.281C43.9214 286.374 16.6958 289.403 1.26812 270.8C0.375658 269.713 -0.168527 268.381 0.0491471 267.429C3.45575 270.882 28.1509 283.008 54.3534 275.042C54.7715 278.163 55.4116 281.251 56.269 284.281Z" fill="#F2DAD6"/>
</g>
<g style="mix-blend-mode:multiply" opacity="0.5">
<path d="M411.731 284.281C424.079 286.374 451.304 289.403 466.732 270.811C467.624 269.724 468.168 268.381 467.951 267.429C464.544 270.882 439.849 283.008 413.647 275.042C413.228 278.163 412.588 281.251 411.731 284.281Z" fill="#F2DAD6"/>
</g>
<path d="M55.5071 262.1C56.5955 258.837 65.8467 258.837 65.3025 260.469C63.0387 267.255 64.2141 276.782 66.3908 284.395C66.8643 286.026 56.9002 286.613 56.0513 283.851C53.8746 276.782 53.4936 268.152 55.5071 262.1ZM412.493 262.1C411.404 258.837 402.153 258.837 402.698 260.469C404.961 267.255 403.786 276.782 401.609 284.395C401.136 286.026 411.1 286.613 411.949 283.851C414.125 276.782 414.506 268.152 412.493 262.1Z" fill="#AAC7E0"/>
<g style="mix-blend-mode:multiply" opacity="0.5">
<path d="M56.0513 283.851C55.1815 280.987 54.6143 278.04 54.3589 275.058C54.4677 276.146 64.4154 274.618 64.361 274.145C64.7481 277.612 65.4271 281.041 66.3908 284.395C66.8643 286.059 56.9002 286.624 56.0513 283.851ZM401.609 284.395C402.573 281.041 403.252 277.612 403.639 274.145C403.585 274.618 413.532 276.151 413.641 275.058C413.386 278.04 412.818 280.987 411.949 283.851C411.1 286.624 401.136 286.059 401.609 284.395Z" fill="#A1C3E2"/>
</g>
<g style="mix-blend-mode:multiply" opacity="0.5">
<path d="M218.893 277.87C206.611 275.76 198.671 270.567 184.833 261.736C153.27 280.137 102.002 295.994 66.4017 284.476C66.407 284.457 66.407 284.436 66.4017 284.417C65.438 281.063 64.759 277.634 64.3719 274.166C64.8671 275.955 150.897 246.929 154.054 237.527C156.704 229.696 163.811 218.076 167.348 185.178C173.835 229.87 196.593 258.598 218.893 277.87ZM300.663 185.167C304.2 218.065 311.307 229.686 313.957 237.516C317.141 246.918 403.144 275.945 403.639 274.156C403.251 277.62 402.572 281.045 401.609 284.395C401.604 284.414 401.604 284.435 401.609 284.455C366.008 295.956 314.757 280.104 283.178 261.714C269.339 270.545 261.411 275.738 249.117 277.848C271.407 258.598 294.165 229.87 300.663 185.167Z" fill="#A1C3E2"/>
</g>
<g style="mix-blend-mode:multiply" opacity="0.5">
<path d="M193.779 267.375C191.058 265.689 188.098 263.808 184.833 261.725C169.873 270.425 150.506 278.582 130.474 283.509C147.79 278.81 166.684 255.265 168.23 249.979C169.775 244.694 169.416 203.552 167.609 184.884C172.507 234.368 180.67 248.506 193.779 267.375ZM300.391 184.884C298.584 203.541 298.214 244.699 299.77 249.968C301.327 255.238 320.21 278.789 337.526 283.498C317.494 278.571 298.127 270.447 283.167 261.714C279.902 263.797 276.963 265.678 274.221 267.364C287.33 248.506 295.493 234.368 300.391 184.884Z" fill="#A1C3E2"/>
</g>
<g style="mix-blend-mode:screen" opacity="0.35">
<path d="M101.039 248.908C94.226 247.641 116.108 236.14 121.99 232.986C130.975 228.174 147.3 233.372 143.872 236.793C141.559 239.06 110.949 250.746 101.039 248.908ZM366.961 248.908C373.774 247.641 351.892 236.14 346.01 232.986C337.025 228.174 320.7 233.372 324.128 236.793C326.441 239.06 357.051 250.746 366.961 248.908Z" fill="#D6E7F9"/>
</g>
<g style="mix-blend-mode:multiply" opacity="0.5">
<path d="M234.044 146.901C198.285 144.856 176.278 138.141 166.886 131.17C167.999 130.039 169.148 128.915 170.33 127.798C173.051 130.506 194.274 143.013 234.044 146.901Z" fill="#A1C3E2"/>
</g>
<g style="mix-blend-mode:multiply" opacity="0.5">
<path d="M297.67 127.787C280.027 136.602 234 141.382 196.451 132.681C240.704 132.681 275.859 120.381 295.634 106.265C297.316 109.13 298.725 118.81 297.67 127.787Z" fill="#A1C3E2"/>
</g>
<g style="mix-blend-mode:multiply" opacity="0.25">
<path d="M297.67 127.787C285.698 133.769 260.578 137.907 233.935 137.2C262.777 134.965 284.462 126.036 297.686 114.797C298.157 119.114 298.151 123.471 297.67 127.787Z" fill="#A1C3E2"/>
</g>
<g style="mix-blend-mode:multiply" opacity="0.5">
<path d="M274.335 103.225C262.221 78.5103 238.707 78.3037 234 78.3037C229.293 78.3037 200.097 78.804 187.244 118.543C218.79 119.631 253.455 115.629 274.335 103.225Z" fill="#A1C3E2"/>
</g>
<g style="mix-blend-mode:multiply" opacity="0.5">
<path d="M269.144 106.004C249.074 115.71 219.476 119.201 191.673 118.674C204.761 90.0601 221.342 89.1792 234 89.1792C244.432 89.1792 257.525 89.7774 269.144 106.004Z" fill="#A1C3E2"/>
</g>
<g style="mix-blend-mode:overlay" opacity="0.5">
<path d="M283.211 192.382C282.052 209.99 269.829 244.155 234 244.155C198.171 244.155 185.948 210.017 184.789 192.41C183.391 170.778 205.343 148.739 234 148.739C262.657 148.739 284.636 170.778 283.211 192.382Z" fill="#D6E7F9"/>
</g>
<path d="M234 243.623C257.743 243.623 276.991 224.389 276.991 200.664C276.991 176.939 257.743 157.706 234 157.706C210.257 157.706 191.009 176.939 191.009 200.664C191.009 224.389 210.257 243.623 234 243.623Z" fill="#EA4235"/>
<path d="M234 230.343C223.829 230.343 214.883 222.143 214.883 211.817C214.883 205.504 217.838 200.398 223.416 197.467C220.216 194.351 218.327 191.235 218.327 186.646C218.289 184.559 218.666 182.486 219.439 180.547C220.211 178.608 221.362 176.842 222.825 175.353C224.288 173.863 226.033 172.68 227.959 171.873C229.885 171.065 231.952 170.649 234.041 170.649C236.129 170.649 238.197 171.065 240.123 171.873C242.048 172.68 243.794 173.863 245.257 175.353C246.72 176.842 247.871 178.608 248.643 180.547C249.415 182.486 249.793 184.559 249.754 186.646C249.754 191.235 247.784 194.351 244.584 197.467C250.162 200.419 253.117 205.504 253.117 211.817C253.046 222.143 244.171 230.343 234 230.343ZM234 203.04C232.263 203.039 230.564 203.553 229.119 204.517C227.674 205.481 226.547 206.851 225.882 208.455C225.216 210.058 225.041 211.823 225.379 213.526C225.718 215.229 226.554 216.793 227.782 218.021C229.01 219.249 230.575 220.085 232.279 220.425C233.983 220.764 235.749 220.59 237.354 219.926C238.96 219.262 240.332 218.137 241.297 216.694C242.262 215.25 242.778 213.553 242.778 211.817C242.776 209.491 241.851 207.26 240.206 205.615C238.56 203.969 236.328 203.043 234 203.04ZM234 180.659C232.79 180.65 231.605 181 230.594 181.665C229.583 182.33 228.793 183.279 228.322 184.393C227.851 185.507 227.722 186.735 227.95 187.922C228.178 189.11 228.753 190.203 229.603 191.063C230.453 191.924 231.539 192.514 232.724 192.757C233.909 193.001 235.14 192.888 236.261 192.432C237.382 191.977 238.342 191.199 239.021 190.198C239.699 189.197 240.066 188.018 240.073 186.809C240.083 185.189 239.449 183.631 238.31 182.478C237.172 181.324 235.621 180.67 234 180.659Z" fill="white"/>
<path d="M264.872 139.245C264.83 139.716 264.65 140.165 264.353 140.534C264.056 140.902 263.657 141.175 263.205 141.317C262.754 141.459 262.27 141.464 261.816 141.332C261.361 141.199 260.956 140.935 260.652 140.572C260.348 140.21 260.158 139.765 260.106 139.295C260.055 138.824 260.144 138.349 260.363 137.93C260.581 137.51 260.92 137.164 261.335 136.937C261.75 136.709 262.223 136.61 262.695 136.651C263.008 136.678 263.313 136.767 263.592 136.912C263.871 137.058 264.119 137.256 264.321 137.497C264.523 137.738 264.676 138.016 264.77 138.316C264.865 138.616 264.899 138.932 264.872 139.245ZM203.128 139.245C203.17 139.716 203.35 140.165 203.647 140.534C203.944 140.902 204.343 141.175 204.795 141.317C205.246 141.459 205.73 141.464 206.184 141.332C206.639 141.199 207.044 140.935 207.348 140.572C207.652 140.21 207.842 139.765 207.894 139.295C207.945 138.824 207.856 138.349 207.637 137.93C207.419 137.51 207.08 137.164 206.665 136.937C206.25 136.709 205.777 136.61 205.305 136.651C204.992 136.678 204.687 136.767 204.408 136.912C204.129 137.058 203.881 137.256 203.679 137.497C203.477 137.738 203.324 138.016 203.23 138.316C203.135 138.616 203.101 138.932 203.128 139.245Z" fill="#A1C3E2"/>
<g style="mix-blend-mode:multiply" opacity="0.5">
<path d="M264.872 139.245C264.83 139.716 264.65 140.165 264.353 140.534C264.056 140.902 263.657 141.175 263.205 141.317C262.754 141.459 262.27 141.464 261.816 141.332C261.361 141.199 260.956 140.935 260.652 140.572C260.348 140.21 260.158 139.765 260.106 139.295C260.055 138.824 260.144 138.349 260.363 137.93C260.581 137.51 260.92 137.164 261.335 136.937C261.75 136.709 262.223 136.61 262.695 136.651C263.008 136.678 263.313 136.767 263.592 136.912C263.871 137.058 264.119 137.256 264.321 137.497C264.523 137.738 264.676 138.016 264.77 138.316C264.865 138.616 264.899 138.932 264.872 139.245ZM262.63 137.445C262.314 137.416 261.997 137.481 261.719 137.632C261.44 137.784 261.213 138.014 261.066 138.295C260.919 138.575 260.859 138.893 260.892 139.208C260.926 139.522 261.053 139.82 261.256 140.063C261.459 140.306 261.73 140.483 262.034 140.572C262.338 140.661 262.662 140.657 262.964 140.562C263.266 140.467 263.533 140.284 263.732 140.037C263.93 139.79 264.05 139.49 264.077 139.174C264.113 138.753 263.982 138.335 263.71 138.011C263.439 137.687 263.051 137.484 262.63 137.445ZM205.305 136.651C205.777 136.61 206.25 136.709 206.665 136.937C207.08 137.164 207.419 137.51 207.637 137.93C207.856 138.349 207.945 138.824 207.894 139.295C207.842 139.765 207.652 140.21 207.348 140.572C207.044 140.935 206.639 141.199 206.184 141.332C205.73 141.464 205.246 141.459 204.795 141.317C204.343 141.175 203.944 140.902 203.647 140.534C203.35 140.165 203.17 139.716 203.128 139.245C203.101 138.932 203.135 138.616 203.23 138.316C203.324 138.016 203.477 137.738 203.679 137.497C203.881 137.256 204.129 137.058 204.408 136.912C204.687 136.767 204.992 136.678 205.305 136.651ZM203.923 139.174C203.951 139.488 204.072 139.787 204.269 140.032C204.467 140.277 204.733 140.458 205.034 140.553C205.335 140.647 205.657 140.65 205.96 140.561C206.262 140.472 206.532 140.296 206.734 140.054C206.936 139.813 207.062 139.517 207.096 139.203C207.13 138.89 207.07 138.574 206.924 138.295C206.778 138.015 206.553 137.785 206.276 137.634C206 137.483 205.684 137.417 205.37 137.445C204.949 137.484 204.561 137.687 204.29 138.011C204.018 138.335 203.887 138.753 203.923 139.174Z" fill="#A1C3E2"/>
</g>
<g style="mix-blend-mode:multiply" opacity="0.5">
<path d="M280.452 172.66C280.25 174.927 276.446 175.003 276.185 173.204C276.002 171.667 275.713 170.144 275.32 168.647C275.102 167.831 275.755 167.102 276.621 166.7C273.29 151.55 269.002 145.357 261.726 139.571C261.591 139.459 261.504 139.301 261.482 139.127C261.46 138.953 261.504 138.778 261.607 138.636C261.653 138.566 261.714 138.507 261.784 138.461C261.855 138.416 261.934 138.386 262.017 138.374C262.1 138.361 262.185 138.365 262.266 138.387C262.347 138.409 262.423 138.447 262.488 138.5C272.028 146.08 275.266 154.335 277.856 166.368C278.645 166.309 279.374 166.548 279.663 167.233C280.269 168.975 280.537 170.817 280.452 172.66ZM205.512 138.483C195.972 146.064 192.734 154.318 190.144 166.352C189.355 166.292 188.626 166.531 188.337 167.217C187.73 168.962 187.462 170.808 187.548 172.654C187.75 174.922 191.554 174.998 191.815 173.198C191.998 171.661 192.287 170.139 192.68 168.641C192.898 167.82 192.245 167.092 191.369 166.689C193.899 154.949 197.039 146.912 206.274 139.566C206.409 139.454 206.496 139.295 206.518 139.122C206.54 138.948 206.496 138.772 206.393 138.63C206.348 138.56 206.288 138.499 206.218 138.453C206.147 138.407 206.068 138.376 205.985 138.362C205.902 138.348 205.817 138.352 205.736 138.373C205.654 138.394 205.578 138.431 205.512 138.483Z" fill="#A1C3E2"/>
</g>
<path d="M282.106 171.964C281.91 174.171 277.976 174.22 277.693 172.453C277.492 170.958 277.185 169.478 276.773 168.027C276.544 167.233 277.214 166.526 278.106 166.134C274.58 151.355 269.66 145.253 262.096 139.576C262.02 139.528 261.955 139.465 261.904 139.39C261.854 139.315 261.819 139.231 261.803 139.142C261.787 139.053 261.789 138.962 261.81 138.874C261.831 138.787 261.87 138.704 261.924 138.632C261.979 138.56 262.047 138.5 262.126 138.456C262.205 138.412 262.292 138.385 262.381 138.376C262.471 138.367 262.562 138.377 262.648 138.405C262.733 138.432 262.813 138.478 262.88 138.538C272.795 145.977 276.642 154.079 279.385 165.819C280.201 165.765 280.958 166.004 281.257 166.673C281.894 168.361 282.183 170.161 282.106 171.964ZM205.12 138.516C195.205 145.955 191.358 154.057 188.615 165.797C187.799 165.743 187.042 165.982 186.743 166.651C186.103 168.346 185.814 170.154 185.894 171.964C186.09 174.171 190.024 174.22 190.307 172.453C190.508 170.958 190.815 169.478 191.227 168.027C191.461 167.227 190.781 166.521 189.883 166.134C192.56 154.677 196.304 146.787 205.904 139.576C205.972 139.526 206.03 139.462 206.073 139.388C206.117 139.315 206.146 139.234 206.158 139.149C206.17 139.065 206.165 138.979 206.144 138.897C206.123 138.814 206.086 138.736 206.034 138.668C205.984 138.598 205.921 138.538 205.848 138.493C205.775 138.447 205.694 138.416 205.609 138.402C205.524 138.388 205.437 138.391 205.353 138.41C205.269 138.43 205.19 138.466 205.12 138.516Z" fill="#3F6993"/>
<g style="mix-blend-mode:multiply" opacity="0.5">
<g style="mix-blend-mode:multiply" opacity="0.5">
<path d="M176.861 308.321C175.522 308.359 174.208 307.953 173.125 307.166C172.042 306.379 171.251 305.255 170.874 303.971C164.088 278.778 159.229 254.368 156.726 230.017C156.296 225.852 159.697 221.61 163.8 220.773C183.598 216.727 284.402 216.727 304.2 220.773C308.303 221.61 311.704 225.852 311.274 230.017C308.771 254.368 303.911 278.778 297.126 303.971C296.749 305.255 295.958 306.379 294.875 307.166C293.792 307.953 292.478 308.359 291.139 308.321H176.861Z" fill="#A1C3E2"/>
</g>
</g>
<path d="M176.861 318.109C175.522 318.147 174.208 317.741 173.125 316.954C172.042 316.167 171.251 315.043 170.874 313.759C164.088 288.566 159.229 264.155 156.726 239.805C156.296 235.64 159.697 231.398 163.8 230.561C183.598 226.515 284.402 226.515 304.2 230.561C308.303 231.398 311.704 235.64 311.274 239.805C308.771 264.155 303.911 288.566 297.125 313.759C296.749 315.043 295.958 316.167 294.875 316.954C293.792 317.741 292.478 318.147 291.139 318.109H176.861Z" fill="#F1F1F3"/>
<g style="mix-blend-mode:multiply">
<path d="M176.861 318.109C175.522 318.147 174.208 317.741 173.125 316.954C172.042 316.167 171.251 315.043 170.874 313.759C164.088 288.566 159.229 264.155 156.726 239.805C156.296 235.64 159.697 231.398 163.8 230.561C183.598 226.515 284.402 226.515 304.2 230.561C308.303 231.398 311.704 235.64 311.274 239.805C308.771 264.155 303.911 288.566 297.125 313.759C296.749 315.043 295.958 316.167 294.875 316.954C293.792 317.741 292.478 318.147 291.139 318.109H176.861ZM287.874 314.846C290.481 314.846 292.837 313.302 293.518 310.86C299.912 287.772 304.488 265.401 306.85 243.084C307.253 239.278 304.053 235.384 300.184 234.612C281.524 230.904 186.52 230.904 167.86 234.612C163.991 235.384 160.785 239.267 161.193 243.084C163.555 265.379 168.132 287.772 174.526 310.86C175.206 313.302 177.563 314.846 180.169 314.846H287.874Z" fill="#F1F1F3"/>
</g>
<path d="M292.908 318.12H174.548C173.421 318.12 172.507 319.033 172.507 320.159V323.15C172.507 324.276 173.421 325.189 174.548 325.189H292.908C294.035 325.189 294.949 324.276 294.949 323.15V320.159C294.949 319.033 294.035 318.12 292.908 318.12Z" fill="#CCCBD9"/>
<g style="mix-blend-mode:multiply">
<path d="M294.949 320.975V323.15C294.949 323.691 294.734 324.21 294.351 324.592C293.968 324.974 293.449 325.189 292.908 325.189H174.548C174.007 325.189 173.487 324.974 173.105 324.592C172.722 324.21 172.507 323.691 172.507 323.15V320.975C172.507 321.515 172.722 322.034 173.105 322.417C173.487 322.799 174.007 323.014 174.548 323.014H292.908C293.449 323.014 293.968 322.799 294.351 322.417C294.734 322.034 294.949 321.515 294.949 320.975Z" fill="#CCCBD9"/>
</g>
<path d="M234 286.374C239.897 286.374 244.677 281.598 244.677 275.705C244.677 269.813 239.897 265.036 234 265.036C228.103 265.036 223.323 269.813 223.323 275.705C223.323 281.598 228.103 286.374 234 286.374Z" fill="#FCFCFC"/>
<g style="mix-blend-mode:multiply">
<g style="mix-blend-mode:multiply">
<path d="M199.772 247.615L181.13 254.465C179.412 255.096 178.532 256.999 179.163 258.716L186.019 277.344C186.65 279.061 188.555 279.941 190.273 279.309L208.915 272.459C210.633 271.828 211.514 269.925 210.882 268.208L204.026 249.58C203.395 247.863 201.49 246.983 199.772 247.615Z" fill="#DBDBDB"/>
</g>
<g style="mix-blend-mode:multiply">
<path d="M199.772 247.615L181.13 254.465C179.412 255.096 178.532 256.999 179.163 258.716L186.019 277.344C186.65 279.061 188.555 279.941 190.273 279.309L208.915 272.459C210.633 271.828 211.514 269.925 210.882 268.208L204.026 249.58C203.395 247.863 201.49 246.983 199.772 247.615Z" fill="#DBDBDB"/>
</g>
<g style="mix-blend-mode:multiply">
<path d="M288.702 281.404C288.546 281.031 288.315 280.694 288.024 280.414C287.733 280.133 287.388 279.915 287.009 279.773L262.983 270.8C262.603 270.657 262.197 270.595 261.792 270.618C261.386 270.64 260.989 270.747 260.627 270.931C260.265 271.115 259.946 271.373 259.689 271.687C259.432 272.002 259.244 272.367 259.136 272.758L252.029 298.511C251.872 299.084 251.892 299.69 252.086 300.251C252.28 300.812 252.64 301.301 253.117 301.654L261.879 308.016C262.092 308.174 262.326 308.3 262.575 308.392C262.822 308.485 263.08 308.543 263.342 308.566L274.161 309.517C274.752 309.568 275.344 309.44 275.861 309.149C276.377 308.858 276.794 308.418 277.056 307.886L288.614 283.808C288.797 283.436 288.899 283.029 288.914 282.615C288.929 282.201 288.857 281.788 288.702 281.404Z" fill="#DBDBDB"/>
</g>
<g style="mix-blend-mode:multiply">
<path d="M286.329 281.583L262.298 272.6C262.17 272.552 262.035 272.532 261.899 272.539C261.763 272.547 261.631 272.583 261.51 272.645C261.389 272.707 261.282 272.793 261.197 272.899C261.111 273.005 261.049 273.127 261.013 273.258L253.901 299.006C253.848 299.198 253.856 299.401 253.923 299.588C253.99 299.774 254.114 299.936 254.276 300.05L263.032 306.423C263.175 306.525 263.342 306.587 263.517 306.603L274.34 307.554C274.537 307.569 274.733 307.525 274.905 307.428C275.076 307.331 275.215 307.186 275.304 307.01L286.857 282.932C286.918 282.81 286.953 282.676 286.959 282.54C286.966 282.404 286.943 282.267 286.894 282.14C286.844 282.013 286.768 281.898 286.67 281.802C286.573 281.706 286.457 281.631 286.329 281.583ZM278.922 288.712L266.461 284.052L265.503 287.494L277.377 291.937L272.741 301.594L265.383 300.947L259.397 296.597L260.856 291.312L264.121 292.535L263.386 295.221L266.651 297.56L270.64 297.935L272.594 293.851L261.307 289.631L264.11 279.463L280.435 285.564L278.922 288.712Z" fill="#DBDBDB"/>
</g>
<g style="mix-blend-mode:multiply">
<path d="M277.377 291.937L272.741 301.594L265.383 300.947L266.651 297.565L270.64 297.94L272.594 293.857L268.599 292.361L269.813 289.098L277.377 291.937ZM272.283 282.519L271.064 285.781L278.923 288.723L280.435 285.58L272.283 282.519Z" fill="#DBDBDB"/>
</g>
<g style="mix-blend-mode:multiply">
<path d="M266.651 297.56L263.386 295.221L264.126 292.541L260.861 291.317L259.403 296.603L265.389 300.953L266.657 297.571L266.651 297.56ZM272.3 282.519L264.137 279.468L261.334 289.637L268.627 292.356L269.84 289.093L265.53 287.462L266.488 284.02L271.092 285.738L272.3 282.519Z" fill="#DBDBDB"/>
</g>
<g style="mix-blend-mode:multiply">
<path d="M273.882 242.142L251.601 251.383C249.547 252.234 248.573 254.589 249.425 256.642L258.673 278.906C259.525 280.958 261.881 281.932 263.936 281.08L286.217 271.84C288.271 270.988 289.245 268.633 288.392 266.58L279.145 244.316C278.292 242.264 275.936 241.29 273.882 242.142Z" fill="#DBDBDB"/>
</g>
<g style="mix-blend-mode:multiply">
<path d="M274.375 243.627L252.295 252.784C250.982 253.329 250.36 254.834 250.904 256.146L260.068 278.209C260.613 279.521 262.119 280.143 263.432 279.599L285.512 270.442C286.825 269.897 287.448 268.392 286.903 267.08L277.739 245.017C277.194 243.705 275.688 243.083 274.375 243.627Z" fill="#DBDBDB"/>
</g>
<g style="mix-blend-mode:multiply">
<path d="M280.642 269.892C278.835 270.594 277.078 270.632 275.407 269.485C275.14 269.3 275.032 269.169 275.298 268.876C275.687 268.423 276.05 267.949 276.387 267.456C276.555 267.217 276.68 267.217 276.931 267.369C277.367 267.689 277.886 267.878 278.427 267.911C278.967 267.945 279.505 267.823 279.978 267.56C280.203 267.443 280.409 267.293 280.588 267.114C280.766 266.957 280.897 266.752 280.963 266.524C281.03 266.296 281.03 266.054 280.964 265.826C280.898 265.597 280.768 265.393 280.589 265.236C280.411 265.079 280.191 264.976 279.956 264.939C279.369 264.834 278.773 264.792 278.177 264.814C277.298 264.846 276.42 264.758 275.565 264.553C274.82 264.333 274.16 263.89 273.673 263.285C273.187 262.679 272.898 261.939 272.844 261.165C272.8 260.422 272.985 259.684 273.374 259.05C273.764 258.416 274.338 257.917 275.021 257.619C276.539 256.88 278.03 256.728 279.51 257.728C279.782 257.913 279.793 258.038 279.614 258.272C279.265 258.74 278.933 259.213 278.618 259.702C278.455 259.952 278.346 260.001 278.074 259.811C277.789 259.587 277.44 259.461 277.079 259.451C276.717 259.441 276.362 259.548 276.066 259.756C275.865 259.861 275.702 260.026 275.6 260.228C275.497 260.43 275.46 260.658 275.494 260.882C275.519 261.121 275.614 261.348 275.769 261.533C275.923 261.718 276.128 261.853 276.359 261.921C276.838 262.039 277.331 262.09 277.823 262.073C278.716 262.052 279.608 262.11 280.49 262.247C281.301 262.371 282.051 262.751 282.63 263.331C283.21 263.911 283.589 264.661 283.711 265.472C283.983 266.972 283.287 268.386 281.812 269.278C281.447 269.527 281.054 269.733 280.642 269.892ZM269.797 260.371C269.666 260.055 269.541 260.012 269.252 260.148C268.701 260.412 268.136 260.646 267.56 260.849C267.195 260.98 267.179 261.138 267.321 261.469C268.409 264.09 269.497 266.719 270.586 269.354C270.702 269.628 270.795 269.912 270.863 270.202C270.943 270.478 270.918 270.774 270.792 271.032C270.667 271.29 270.449 271.493 270.183 271.6C269.86 271.779 269.487 271.848 269.121 271.795C268.755 271.742 268.417 271.57 268.159 271.306C267.892 271.089 267.761 271.121 267.576 271.399C267.244 271.893 266.896 272.377 266.515 272.84C266.297 273.106 266.363 273.242 266.613 273.427C267.339 273.961 268.211 274.262 269.112 274.289C270.013 274.316 270.901 274.068 271.658 273.579C272.931 272.84 273.682 271.801 273.617 270.273C273.579 269.694 273.441 269.125 273.209 268.593L271.576 264.667C271.005 263.237 270.373 261.812 269.797 260.371Z" fill="#DBDBDB"/>
</g>
<g style="mix-blend-mode:multiply">
<path d="M234 294.58C243.23 294.58 250.712 287.103 250.712 277.88C250.712 268.658 243.23 261.181 234 261.181C224.77 261.181 217.288 268.658 217.288 277.88C217.288 287.103 224.77 294.58 234 294.58Z" fill="#DBDBDB"/>
</g>
<g style="mix-blend-mode:multiply">
<path d="M234 293.171C242.382 293.171 249.177 286.381 249.177 278.006C249.177 269.63 242.382 262.84 234 262.84C225.618 262.84 218.823 269.63 218.823 278.006C218.823 286.381 225.618 293.171 234 293.171Z" fill="#DBDBDB"/>
</g>
<g style="mix-blend-mode:multiply">
<path d="M234 288.484C230.408 288.484 227.252 285.586 227.252 281.959C227.217 280.915 227.482 279.883 228.015 278.985C228.549 278.087 229.328 277.36 230.261 276.891C229.135 275.803 228.466 274.716 228.466 273.084C228.442 272.342 228.569 271.602 228.837 270.909C229.105 270.216 229.51 269.584 230.028 269.051C230.545 268.517 231.165 268.093 231.849 267.803C232.534 267.513 233.27 267.364 234.014 267.364C234.757 267.364 235.493 267.513 236.178 267.803C236.863 268.093 237.482 268.517 237.999 269.051C238.517 269.584 238.922 270.216 239.19 270.909C239.459 271.602 239.585 272.342 239.562 273.084C239.562 274.716 238.865 275.803 237.739 276.891C238.672 277.36 239.451 278.087 239.985 278.985C240.518 279.883 240.783 280.915 240.748 281.959C240.694 283.71 239.959 285.371 238.699 286.59C237.439 287.808 235.753 288.488 234 288.484ZM234 278.843C233.387 278.843 232.787 279.025 232.277 279.365C231.767 279.706 231.369 280.19 231.134 280.756C230.899 281.323 230.838 281.946 230.958 282.547C231.077 283.148 231.373 283.701 231.807 284.134C232.24 284.568 232.793 284.863 233.395 284.982C233.997 285.102 234.62 285.041 235.187 284.806C235.754 284.571 236.238 284.174 236.579 283.664C236.92 283.155 237.102 282.555 237.102 281.942C237.1 281.121 236.773 280.333 236.192 279.752C235.61 279.171 234.822 278.844 234 278.843ZM234 270.942C233.568 270.935 233.144 271.057 232.782 271.292C232.42 271.527 232.136 271.865 231.966 272.262C231.796 272.659 231.748 273.097 231.829 273.521C231.909 273.945 232.113 274.336 232.417 274.643C232.72 274.951 233.107 275.161 233.531 275.248C233.954 275.334 234.393 275.293 234.793 275.129C235.192 274.966 235.534 274.687 235.775 274.329C236.016 273.97 236.144 273.548 236.144 273.117C236.144 272.546 235.919 271.997 235.518 271.59C235.117 271.183 234.572 270.95 234 270.942Z" fill="#DBDBDB"/>
</g>
<g style="mix-blend-mode:multiply">
<path d="M211.258 273.71C210.989 273.478 210.674 273.306 210.334 273.203C209.994 273.1 209.636 273.069 209.283 273.111L186.971 275.83C186.62 275.877 186.281 275.995 185.978 276.178C185.674 276.362 185.412 276.606 185.207 276.896C185.003 277.185 184.861 277.514 184.79 277.861C184.719 278.209 184.72 278.567 184.795 278.914L189.692 301.79C189.803 302.299 190.066 302.762 190.446 303.119C190.826 303.475 191.305 303.708 191.82 303.786L201.202 305.189C201.431 305.222 201.664 305.222 201.893 305.189C202.123 305.161 202.348 305.103 202.562 305.015L211.351 301.377C211.832 301.176 212.241 300.834 212.524 300.396C212.806 299.959 212.95 299.445 212.935 298.925L212.162 275.542C212.147 275.191 212.059 274.846 211.903 274.531C211.748 274.215 211.528 273.936 211.258 273.71Z" fill="#DBDBDB"/>
</g>
<g style="mix-blend-mode:multiply">
<path d="M209.512 274.803L187.2 277.521C187.082 277.536 186.969 277.575 186.867 277.636C186.765 277.697 186.677 277.778 186.609 277.875C186.54 277.972 186.493 278.081 186.469 278.198C186.445 278.314 186.446 278.433 186.471 278.549L191.368 301.426C191.404 301.597 191.492 301.752 191.619 301.871C191.747 301.99 191.908 302.066 192.081 302.089L201.463 303.498C201.614 303.523 201.769 303.505 201.909 303.443L210.703 299.805C210.867 299.741 211.006 299.629 211.103 299.483C211.201 299.337 211.251 299.165 211.248 298.99L210.475 275.607C210.469 275.49 210.439 275.374 210.386 275.269C210.334 275.163 210.26 275.07 210.17 274.994C210.079 274.919 209.974 274.863 209.861 274.83C209.747 274.797 209.629 274.787 209.512 274.803Z" fill="#DBDBDB"/>
</g>
<g style="mix-blend-mode:multiply">
<path d="M199.286 284.128L191.847 285.042L191.303 282.193L198.922 281.274L199.286 284.128ZM199.662 287.255L192.533 288.201L193.186 291.051L200.016 290.213L199.662 287.255ZM200.631 295.336L197.126 294.83L196.582 292.323L193.523 292.687L194.547 297.522L201.001 298.5L200.631 295.336Z" fill="#DBDBDB"/>
</g>
<g style="mix-blend-mode:multiply">
<path d="M207.063 296.021L201.011 298.5L200.631 295.336H200.636L203.928 294.009L203.885 289.729L200.016 290.208L199.662 287.255L203.781 286.711L203.634 283.596L199.286 284.128L198.944 281.274L206.584 280.355L207.063 296.021Z" fill="#DBDBDB"/>
</g>
</g>
<path d="M199.772 245.443L181.13 252.293C179.412 252.924 178.531 254.827 179.163 256.544L186.018 275.172C186.65 276.889 188.555 277.769 190.273 277.137L208.915 270.287C210.633 269.656 211.513 267.753 210.882 266.036L204.026 247.408C203.395 245.691 201.49 244.812 199.772 245.443Z" fill="white"/>
<path d="M199.772 245.443L181.13 252.293C179.412 252.924 178.531 254.827 179.163 256.544L186.018 275.172C186.65 276.889 188.555 277.769 190.273 277.137L208.915 270.287C210.633 269.656 211.513 267.753 210.882 266.036L204.026 247.408C203.395 245.691 201.49 244.812 199.772 245.443Z" fill="white"/>
<path d="M288.702 279.229C288.546 278.856 288.315 278.519 288.024 278.239C287.733 277.958 287.388 277.74 287.009 277.598L262.983 268.625C262.603 268.482 262.197 268.42 261.792 268.442C261.386 268.465 260.989 268.572 260.627 268.756C260.265 268.94 259.946 269.198 259.689 269.512C259.432 269.827 259.244 270.192 259.136 270.583L252.029 296.336C251.872 296.909 251.892 297.515 252.086 298.076C252.28 298.637 252.64 299.126 253.117 299.479L261.879 305.841C262.092 305.999 262.326 306.125 262.575 306.217C262.822 306.31 263.08 306.368 263.342 306.391L274.161 307.342C274.752 307.393 275.344 307.265 275.861 306.974C276.377 306.683 276.794 306.243 277.056 305.711L288.614 281.632C288.797 281.26 288.899 280.854 288.914 280.44C288.929 280.026 288.857 279.613 288.702 279.229Z" fill="white"/>
<path d="M286.329 279.408L262.298 270.425C262.17 270.377 262.035 270.357 261.899 270.364C261.763 270.372 261.631 270.408 261.51 270.47C261.389 270.532 261.282 270.618 261.197 270.724C261.111 270.83 261.049 270.952 261.013 271.083L253.901 296.831C253.848 297.023 253.856 297.226 253.923 297.413C253.99 297.599 254.114 297.761 254.276 297.875L263.032 304.248C263.175 304.35 263.342 304.412 263.517 304.428L274.341 305.379C274.537 305.394 274.733 305.35 274.905 305.253C275.076 305.157 275.215 305.011 275.304 304.835L286.857 280.757C286.918 280.635 286.953 280.501 286.96 280.365C286.966 280.229 286.944 280.092 286.894 279.965C286.844 279.838 286.768 279.723 286.671 279.627C286.573 279.531 286.457 279.456 286.329 279.408ZM278.923 286.537L266.461 281.877L265.503 285.319L277.377 289.762L272.741 299.419L265.383 298.772L259.397 294.422L260.856 289.137L264.121 290.36L263.386 293.046L266.651 295.385L270.64 295.76L272.594 291.676L261.307 287.456L264.11 277.288L280.435 283.389L278.923 286.537Z" fill="#E54F26"/>
<path d="M277.377 289.762L272.741 299.419L265.383 298.772L266.651 295.39L270.64 295.765L272.594 291.682L268.599 290.186L269.813 286.923L277.377 289.762ZM272.283 280.344L271.064 283.606L278.923 286.548L280.435 283.405L272.283 280.344Z" fill="white"/>
<path d="M266.651 295.385L263.386 293.046L264.126 290.365L260.861 289.142L259.403 294.428L265.389 298.778L266.657 295.395L266.651 295.385ZM272.3 280.344L264.137 277.293L261.334 287.462L268.627 290.181L269.84 286.918L265.53 285.287L266.488 281.845L271.092 283.563L272.3 280.344Z" fill="#F4F4F4"/>
<path d="M273.886 239.97L251.605 249.211C249.551 250.062 248.576 252.417 249.429 254.47L258.676 276.734C259.529 278.786 261.885 279.76 263.939 278.908L286.22 269.668C288.274 268.816 289.248 266.461 288.396 264.409L279.149 242.144C278.296 240.092 275.94 239.118 273.886 239.97Z" fill="white"/>
<path d="M274.379 241.455L252.299 250.612C250.986 251.157 250.363 252.662 250.908 253.974L260.072 276.037C260.617 277.349 262.123 277.971 263.436 277.427L285.516 268.27C286.829 267.725 287.452 266.22 286.907 264.908L277.743 242.845C277.198 241.533 275.692 240.911 274.379 241.455Z" fill="#F9E034"/>
<path d="M280.642 267.717C278.835 268.419 277.078 268.457 275.407 267.309C275.14 267.125 275.032 266.994 275.298 266.7C275.687 266.248 276.05 265.774 276.387 265.281C276.555 265.042 276.681 265.042 276.931 265.194C277.367 265.514 277.886 265.703 278.427 265.736C278.967 265.77 279.505 265.648 279.978 265.384C280.203 265.268 280.409 265.117 280.588 264.939C280.766 264.782 280.897 264.577 280.963 264.349C281.03 264.121 281.03 263.879 280.964 263.651C280.898 263.422 280.768 263.218 280.589 263.061C280.411 262.903 280.191 262.8 279.957 262.763C279.369 262.659 278.773 262.617 278.177 262.638C277.298 262.671 276.42 262.583 275.565 262.377C274.82 262.157 274.16 261.715 273.673 261.109C273.187 260.504 272.898 259.764 272.844 258.99C272.8 258.247 272.985 257.509 273.374 256.875C273.764 256.241 274.338 255.741 275.021 255.444C276.539 254.705 278.03 254.552 279.51 255.553C279.782 255.738 279.793 255.863 279.614 256.097C279.265 256.564 278.933 257.037 278.618 257.527C278.455 257.777 278.346 257.826 278.074 257.636C277.789 257.412 277.44 257.286 277.079 257.276C276.717 257.266 276.362 257.373 276.066 257.581C275.865 257.686 275.702 257.851 275.6 258.053C275.497 258.255 275.46 258.483 275.494 258.707C275.519 258.946 275.615 259.173 275.769 259.358C275.923 259.543 276.128 259.678 276.359 259.745C276.838 259.864 277.331 259.915 277.823 259.898C278.716 259.877 279.608 259.935 280.49 260.072C281.301 260.196 282.051 260.576 282.63 261.156C283.21 261.736 283.589 262.486 283.711 263.296C283.983 264.797 283.287 266.211 281.812 267.103C281.447 267.351 281.054 267.558 280.642 267.717ZM269.797 258.196C269.666 257.88 269.541 257.837 269.252 257.973C268.701 258.237 268.136 258.471 267.56 258.674C267.195 258.805 267.179 258.962 267.321 259.294C268.409 261.915 269.497 264.543 270.586 267.179C270.702 267.453 270.795 267.737 270.863 268.027C270.943 268.303 270.918 268.599 270.792 268.857C270.667 269.115 270.449 269.317 270.183 269.425C269.86 269.604 269.487 269.672 269.121 269.619C268.755 269.566 268.417 269.395 268.159 269.131C267.892 268.914 267.761 268.946 267.576 269.223C267.244 269.718 266.896 270.202 266.515 270.665C266.297 270.931 266.363 271.067 266.613 271.252C267.339 271.786 268.211 272.086 269.112 272.114C270.013 272.141 270.901 271.893 271.658 271.404C272.931 270.664 273.682 269.626 273.617 268.098C273.579 267.518 273.441 266.95 273.209 266.418L271.576 262.492C271.005 261.061 270.373 259.637 269.797 258.196Z" fill="#343433"/>
<path d="M234 292.405C243.23 292.405 250.712 284.928 250.712 275.705C250.712 266.483 243.23 259.006 234 259.006C224.77 259.006 217.288 266.483 217.288 275.705C217.288 284.928 224.77 292.405 234 292.405Z" fill="white"/>
<path d="M234 290.996C242.382 290.996 249.177 284.206 249.177 275.83C249.177 267.454 242.382 260.664 234 260.664C225.618 260.664 218.823 267.454 218.823 275.83C218.823 284.206 225.618 290.996 234 290.996Z" fill="#EA4235"/>
<path d="M234 286.309C230.408 286.309 227.252 283.411 227.252 279.784C227.217 278.74 227.482 277.708 228.015 276.81C228.549 275.912 229.328 275.185 230.261 274.716C229.135 273.628 228.466 272.541 228.466 270.909C228.442 270.167 228.569 269.427 228.837 268.734C229.105 268.041 229.51 267.409 230.028 266.876C230.545 266.342 231.165 265.918 231.849 265.628C232.534 265.338 233.27 265.189 234.014 265.189C234.757 265.189 235.493 265.338 236.178 265.628C236.863 265.918 237.482 266.342 238 266.876C238.517 267.409 238.922 268.041 239.19 268.734C239.459 269.427 239.585 270.167 239.562 270.909C239.562 272.541 238.865 273.628 237.739 274.716C238.672 275.185 239.451 275.912 239.985 276.81C240.518 277.708 240.783 278.74 240.748 279.784C240.694 281.535 239.959 283.196 238.699 284.415C237.439 285.633 235.753 286.313 234 286.309ZM234 276.668C233.387 276.668 232.787 276.85 232.277 277.19C231.767 277.531 231.369 278.015 231.134 278.581C230.899 279.148 230.838 279.771 230.958 280.372C231.077 280.973 231.373 281.526 231.807 281.959C232.24 282.392 232.793 282.688 233.395 282.807C233.997 282.927 234.62 282.865 235.187 282.631C235.754 282.396 236.238 281.999 236.579 281.489C236.92 280.98 237.102 280.38 237.102 279.767C237.1 278.946 236.773 278.158 236.192 277.577C235.61 276.996 234.822 276.669 234 276.668ZM234 268.767C233.568 268.76 233.144 268.882 232.782 269.117C232.42 269.352 232.136 269.69 231.966 270.087C231.796 270.483 231.748 270.922 231.829 271.346C231.909 271.77 232.113 272.161 232.417 272.468C232.72 272.775 233.107 272.986 233.531 273.072C233.954 273.159 234.393 273.118 234.793 272.954C235.192 272.791 235.534 272.512 235.775 272.154C236.016 271.795 236.144 271.373 236.144 270.942C236.144 270.371 235.919 269.822 235.518 269.415C235.117 269.008 234.572 268.775 234 268.767Z" fill="white"/>
<path d="M211.258 271.535C210.989 271.303 210.674 271.131 210.334 271.028C209.994 270.925 209.636 270.894 209.283 270.936L186.972 273.655C186.62 273.702 186.281 273.82 185.978 274.003C185.674 274.187 185.412 274.431 185.207 274.721C185.003 275.01 184.861 275.339 184.79 275.686C184.719 276.034 184.72 276.392 184.795 276.739L189.692 299.615C189.803 300.124 190.066 300.587 190.446 300.943C190.826 301.3 191.305 301.532 191.82 301.611L201.202 303.014C201.431 303.046 201.664 303.046 201.893 303.014C202.123 302.986 202.348 302.927 202.562 302.84L211.351 299.202C211.832 299.001 212.241 298.659 212.524 298.221C212.806 297.783 212.95 297.27 212.935 296.749L212.162 273.367C212.147 273.016 212.059 272.671 211.903 272.356C211.748 272.04 211.528 271.761 211.258 271.535Z" fill="white"/>
<path d="M209.512 272.628L187.2 275.346C187.082 275.361 186.969 275.4 186.867 275.461C186.766 275.522 186.678 275.603 186.609 275.7C186.54 275.797 186.493 275.906 186.469 276.022C186.445 276.139 186.446 276.258 186.471 276.374L191.369 299.251C191.404 299.422 191.492 299.577 191.619 299.696C191.747 299.815 191.909 299.891 192.081 299.914L201.463 301.323C201.614 301.348 201.769 301.33 201.909 301.268L210.703 297.63C210.867 297.566 211.006 297.454 211.103 297.308C211.201 297.162 211.251 296.99 211.248 296.815L210.475 273.432C210.469 273.315 210.439 273.199 210.386 273.094C210.334 272.988 210.26 272.895 210.17 272.819C210.079 272.744 209.974 272.688 209.861 272.655C209.747 272.622 209.629 272.612 209.512 272.628Z" fill="#2196F3"/>
<path d="M199.286 281.953L191.847 282.867L191.303 280.017L198.922 279.099L199.286 281.953ZM199.662 285.08L192.533 286.026L193.186 288.876L200.016 288.038L199.662 285.08ZM200.631 293.161L197.126 292.655L196.582 290.148L193.523 290.512L194.547 295.347L201.001 296.325L200.631 293.161Z" fill="#F4F4F4"/>
<path d="M207.063 293.846L201.011 296.325L200.631 293.161H200.636L203.928 291.834L203.885 287.554L200.016 288.033L199.662 285.08L203.781 284.536L203.634 281.42L199.286 281.953L198.944 279.099L206.584 278.18L207.063 293.846Z" fill="#FAFAFA"/>
<path d="M239.442 340.948C243.997 341.421 247.539 341.616 250.755 340.752C253.063 340.132 255.261 334.732 263.816 339.615C268.637 342.334 301.561 365.222 302.573 368.93C303.688 373.03 300.657 375.662 287.635 371.693C272.991 367.234 259.642 361.241 238.288 360.382C233.935 360.214 236.019 340.605 239.442 340.948Z" fill="#A8696F"/>
<g style="mix-blend-mode:screen" opacity="0.25">
<path d="M235.856 354.417C236.063 349.066 237.548 343.15 239.442 343.346C243.997 343.819 247.539 344.014 250.756 343.15C253.063 342.53 255.261 337.13 263.816 342.013C268.637 344.732 301.561 367.62 302.573 371.328C302.588 371.378 302.601 371.429 302.611 371.48C302.854 370.649 302.84 369.765 302.573 368.941C301.561 365.227 268.637 342.367 263.816 339.621C255.234 334.727 253.036 340.164 250.756 340.763C247.539 341.622 243.997 341.431 239.442 340.958C237.265 340.735 235.633 348.62 235.856 354.417Z" fill="#A8696F"/>
</g>
<g style="mix-blend-mode:multiply" opacity="0.5">
<path d="M238.315 360.393C259.669 361.252 273.018 367.245 287.662 371.704C297.642 374.743 301.751 373.911 302.627 371.508C290.057 373.955 264.273 349.311 242.767 350.692L237.167 350.252L235.839 352.595C235.752 356.717 236.443 360.317 238.315 360.393Z" fill="#A8696F"/>
</g>
<g style="mix-blend-mode:multiply" opacity="0.5">
<path d="M296.581 363.014C288.032 364.221 278.667 365.091 268.398 365.532C258.63 362.532 248.515 360.805 238.305 360.393C236.884 360.339 236.128 358.218 235.905 355.445C252.085 356.399 268.319 355.827 284.392 353.737C288.881 356.994 293.256 360.29 296.581 363.014Z" fill="#A8696F"/>
</g>
<path d="M234 340.311C234 343.215 233.788 356.625 232.531 359.713C231.274 362.802 239.442 364.874 241.074 361.758C242.707 358.642 243.251 345.233 242.707 341.094C242.163 336.956 234 337.457 234 340.311Z" fill="#E8A225"/>
<g style="mix-blend-mode:multiply" opacity="0.5">
<path d="M241.074 361.758C241.961 360.072 242.527 355.33 242.772 350.692C241.401 351.176 235.464 351.089 233.75 349.713C233.543 353.895 233.173 358.147 232.531 359.719C231.279 362.791 239.442 364.874 241.074 361.758Z" fill="#E8A225"/>
</g>
<path d="M79.4513 307.777C86.9937 314.776 106.28 365.499 234 360.154L236.487 360.252L237.809 340.948C236.522 340.759 235.249 340.481 234 340.116C196.097 329.006 182.204 295.178 122.148 301.986C121.888 302.015 121.626 301.953 121.406 301.812C121.185 301.67 121.02 301.458 120.938 301.21C120.856 300.961 120.862 300.692 120.954 300.448C121.046 300.203 121.22 299.997 121.446 299.865C124.929 297.942 128.648 296.48 132.509 295.515C139.785 293.699 136.438 291.42 133.549 290.583C126.861 288.606 119.831 288.063 112.919 288.99C84.1912 292.774 79.4513 286.57 74.5536 292.551C71.2885 296.945 73.6993 302.454 79.4513 307.777Z" fill="#716491"/>
<g style="mix-blend-mode:multiply" opacity="0.25">
<path d="M79.4513 307.777C86.9937 314.776 106.28 365.499 234 360.154L236.487 360.252L237.173 350.241L233.75 350.018C159.234 354.656 103.945 328.321 92.3158 302.078C86.9012 289.882 77.1113 289.615 74.5536 292.551C71.2885 296.945 73.6993 302.454 79.4513 307.777Z" fill="#413857"/>
</g>
<g style="mix-blend-mode:screen" opacity="0.25">
<path d="M150.74 309.583C139.791 309.583 127.623 311.611 138.768 318.201C164.464 333.427 204.336 335.678 197.98 332.448C194.302 330.616 165.868 309.577 150.74 309.583Z" fill="#716491"/>
</g>
<path d="M388.549 307.777C381.006 314.776 361.72 365.499 234 360.154L231.513 360.252L230.191 340.948C231.478 340.759 232.751 340.481 234 340.116C271.903 329.006 285.796 295.178 345.852 301.986C346.112 302.015 346.374 301.953 346.594 301.812C346.815 301.67 346.98 301.458 347.062 301.21C347.144 300.961 347.138 300.692 347.046 300.448C346.953 300.203 346.78 299.997 346.554 299.865C343.071 297.942 339.352 296.48 335.491 295.515C328.215 293.699 331.562 291.42 334.451 290.583C341.139 288.606 348.169 288.063 355.081 288.99C383.809 292.736 388.549 286.543 393.446 292.524C396.711 296.945 394.301 302.454 388.549 307.777Z" fill="#716491"/>
<g style="mix-blend-mode:multiply" opacity="0.25">
<path d="M388.549 307.777C381.006 314.776 361.72 365.499 234 360.154L231.513 360.252L230.827 350.241L234.25 350.018C308.766 354.656 364.055 328.321 375.684 302.078C381.099 289.882 390.889 289.615 393.446 292.551C396.711 296.945 394.301 302.454 388.549 307.777Z" fill="#413857"/>
</g>
<g style="mix-blend-mode:screen" opacity="0.25">
<path d="M270.074 332.448C263.718 335.678 303.59 333.443 329.287 318.201C340.405 311.611 328.237 309.583 317.288 309.583C302.132 309.577 273.726 330.616 270.074 332.448Z" fill="#716491"/>
</g>
<g style="mix-blend-mode:multiply" opacity="0.25">
<path d="M234 360.165C208.712 361.225 187.673 360.083 170.14 357.516C176.877 348.43 205.202 326.168 213.56 331.23C220 334.988 226.861 337.974 234 340.126C230.414 345.227 230.191 347.853 234 360.165Z" fill="#413857"/>
</g>
<g style="mix-blend-mode:multiply" opacity="0.25">
<path d="M139.312 281.132C119.362 287.016 98.1767 290.028 79.6146 287.451C77.6975 288.907 75.9939 290.623 74.5536 292.552C72.8939 294.792 72.7088 297.331 73.6938 299.99C109.926 309.409 156.067 284.058 152.203 283.307C147.796 282.474 143.498 281.748 139.312 281.132ZM315.802 283.307C311.938 284.047 358.08 309.409 394.312 299.99C395.297 297.331 395.112 294.792 393.452 292.552C392.015 290.616 390.313 288.892 388.396 287.429C369.834 290.007 348.671 286.994 328.699 281.11C324.513 281.738 320.212 282.47 315.797 283.307H315.802Z" fill="#413857"/>
</g>
<path d="M228.558 340.948C224.003 341.421 220.461 341.616 217.245 340.752C214.937 340.132 212.739 334.732 204.184 339.615C199.363 342.334 166.439 365.222 165.427 368.93C164.312 373.03 167.343 375.662 180.365 371.693C195.009 367.234 208.358 361.241 229.712 360.382C234.065 360.214 231.981 340.605 228.558 340.948Z" fill="#BB8386"/>
<g style="mix-blend-mode:screen" opacity="0.25">
<path d="M232.144 354.417C231.938 349.066 230.452 343.15 228.558 343.346C224.003 343.819 220.461 344.014 217.245 343.15C214.937 342.53 212.739 337.13 204.184 342.013C199.363 344.732 166.439 367.62 165.427 371.328C165.412 371.378 165.399 371.429 165.389 371.48C165.146 370.649 165.16 369.765 165.427 368.941C166.439 365.227 199.363 342.367 204.184 339.621C212.766 334.727 214.964 340.164 217.245 340.763C220.461 341.622 224.003 341.431 228.558 340.958C230.735 340.735 232.367 348.62 232.144 354.417Z" fill="#BB8386"/>
</g>
<g style="mix-blend-mode:multiply" opacity="0.5">
<path d="M229.685 360.393C208.331 361.252 194.982 367.245 180.338 371.704C170.357 374.743 166.249 373.911 165.373 371.508C177.943 373.955 203.727 349.311 225.233 350.692L230.833 350.252L232.161 352.595C232.248 356.717 231.557 360.317 229.685 360.393Z" fill="#BB8386"/>
</g>
<path d="M234 340.311C234 343.215 234.212 356.625 235.469 359.713C236.726 362.802 228.558 364.874 226.926 361.758C225.293 358.642 224.749 345.233 225.293 341.094C225.837 336.956 234 337.457 234 340.311Z" fill="#FFCD5E"/>
<g style="mix-blend-mode:multiply" opacity="0.5">
<path d="M226.926 361.758C226.039 360.072 225.473 355.33 225.228 350.692C226.599 351.176 232.536 351.089 234.25 349.713C234.457 353.895 234.827 358.147 235.469 359.719C236.721 362.791 228.558 364.874 226.926 361.758Z" fill="#FFCD5E"/>
</g>
<g style="mix-blend-mode:multiply" opacity="0.25">
<path d="M263.228 108.581C244.035 116.129 218.262 118.994 193.676 118.701C198.949 114.351 203.7 110.876 204.859 108.407C206.883 104.111 209.283 94.7638 209.457 86.1939C209.506 83.8448 207.879 82.5615 207.852 80.2396C216.218 77.1343 225.075 75.5577 234 75.5849C242.892 75.5244 251.731 76.9488 260.154 79.7991C260.126 81.9035 258.488 82.9693 258.521 85.1118C258.652 94.0569 261.035 103.916 263.141 108.396C263.168 108.462 263.196 108.521 263.228 108.581Z" fill="#A1C3E2"/>
</g>
<path d="M260.975 109.435C242.685 116.113 218.964 118.804 196.059 118.717C201.942 113.138 208.75 108.815 210.056 106.036C214.409 96.7922 211.688 65.2532 211.688 65.2532H256.312C256.312 65.2532 253.591 96.7922 257.944 106.036C258.39 106.999 259.49 108.135 260.975 109.435Z" fill="#FFD0C0"/>
<g style="mix-blend-mode:multiply">
<path d="M215.498 106.036C214.197 108.799 207.417 113.105 201.545 118.674C199.731 118.703 197.917 118.714 196.103 118.706C201.942 113.138 208.75 108.815 210.056 106.036C214.409 96.7922 211.688 65.2532 211.688 65.2532H217.13C217.13 65.2532 219.851 96.7922 215.498 106.036Z" fill="#F2DAD6"/>
</g>
<path d="M192.098 65.7969C192.174 64.1656 195.907 62.5342 195.907 62.5342L194.274 60.3591C194.274 60.3591 189.377 62.5342 189.377 64.7093C189.377 66.3733 191.417 92.3603 213.8 118.201H213.969C199.972 100.506 191.581 77.2162 192.098 65.7969ZM273.726 60.3591L272.093 62.5342C272.093 62.5342 275.826 64.1656 275.902 65.7969C276.343 75.4652 270.384 93.6654 260.034 109.761L261.122 109.375C277.023 86.7486 278.623 66.1938 278.623 64.7093C278.623 62.5342 273.726 60.3591 273.726 60.3591Z" fill="#7D91AA"/>
<g style="mix-blend-mode:multiply" opacity="0.5">
<path d="M192.098 65.7969C192.174 64.1656 195.907 62.5342 195.907 62.5342L194.274 60.3591C194.274 60.3591 194.117 60.4298 193.861 60.5603L194.84 61.8654C194.84 61.8654 191.107 63.4967 191.031 65.128C190.563 75.4598 197.431 95.6176 209.163 112.475C210.615 114.378 212.16 116.286 213.8 118.201H213.969C199.972 100.506 191.581 77.2162 192.098 65.7969ZM275.276 61.1639C275.173 61.1041 274.852 60.9192 274.498 60.7343C274.259 60.6038 273.584 61.5935 273.677 61.6424C274.662 62.2243 277.486 63.9317 277.486 64.7692C277.486 65.9981 276.446 79.8589 266.76 97.8525C266.76 97.8525 266.76 97.8525 266.76 97.8851C264.754 101.968 262.518 105.933 260.061 109.761L261.149 109.375C277.023 86.7486 278.623 66.1938 278.623 64.7093C278.623 63.3608 276.708 61.9905 275.276 61.1748V61.1639Z" fill="#7D91AA"/>
</g>
<path d="M258.488 39.1519C261.825 39.1519 265.086 40.1405 267.861 41.9928C270.635 43.8451 272.797 46.4778 274.074 49.558C275.351 52.6382 275.685 56.0276 275.034 59.2976C274.383 62.5675 272.776 65.5712 270.417 67.9287C268.058 70.2862 265.052 71.8916 261.779 72.5421C258.507 73.1925 255.115 72.8587 252.033 71.5828C248.95 70.3069 246.315 68.1463 244.462 65.3742C242.608 62.6021 241.619 59.3429 241.619 56.0089C241.619 51.5381 243.396 47.2505 246.56 44.0892C249.723 40.9279 254.014 39.1519 258.488 39.1519ZM209.512 39.1519C206.175 39.1519 202.913 40.1405 200.139 41.9928C197.365 43.8451 195.203 46.4778 193.926 49.558C192.649 52.6382 192.315 56.0276 192.966 59.2976C193.617 62.5675 195.224 65.5712 197.583 67.9287C199.942 70.2862 202.948 71.8916 206.22 72.5421C209.493 73.1925 212.885 72.8587 215.967 71.5828C219.05 70.3069 221.685 68.1463 223.538 65.3742C225.392 62.6021 226.381 59.3429 226.381 56.0089C226.381 51.5381 224.604 47.2505 221.44 44.0892C218.277 40.9279 213.986 39.1519 209.512 39.1519Z" fill="#C3BBC6"/>
<g style="mix-blend-mode:screen" opacity="0.6">
<path d="M226.381 56.0089C226.381 56.9195 226.308 57.8287 226.164 58.7278H209.512C204.07 58.7278 192.642 59.2716 192.642 56.0089C192.642 53.7952 193.078 51.6032 193.926 49.558C194.774 47.5128 196.016 45.6545 197.583 44.0892C199.149 42.5238 201.009 41.2822 203.056 40.435C205.103 39.5879 207.296 39.1519 209.512 39.1519C211.727 39.1519 213.921 39.5879 215.967 40.435C218.014 41.2822 219.874 42.5238 221.44 44.0892C223.007 45.6545 224.25 47.5128 225.097 49.558C225.945 51.6032 226.381 53.7952 226.381 56.0089ZM241.619 56.0089C241.619 56.9195 241.692 57.8287 241.836 58.7278H258.488C263.93 58.7278 275.358 59.2716 275.358 56.0089C275.358 53.7952 274.922 51.6032 274.074 49.558C273.226 47.5128 271.984 45.6545 270.417 44.0892C268.851 42.5238 266.991 41.2822 264.944 40.435C262.897 39.5879 260.704 39.1519 258.488 39.1519C256.273 39.1519 254.079 39.5879 252.033 40.435C249.986 41.2822 248.126 42.5238 246.56 44.0892C244.993 45.6545 243.751 47.5128 242.903 49.558C242.055 51.6032 241.619 53.7952 241.619 56.0089Z" fill="#C3BBC6"/>
</g>
<g style="mix-blend-mode:multiply" opacity="0.5">
<path d="M274.335 103.225C253.455 115.629 218.79 119.631 187.254 118.543C187.617 117.456 187.98 116.381 188.343 115.319C218.926 116.254 252.257 112.382 273.007 100.713C273.464 101.525 273.907 102.362 274.335 103.225Z" fill="#A1C3E2"/>
</g>
<g style="mix-blend-mode:multiply">
<path d="M256.312 65.2532C256.312 65.2532 255.882 70.2559 255.637 76.8628C250.739 90.4572 242.125 98.4235 234 98.4235C225.875 98.4235 217.25 90.4409 212.363 76.8628C212.118 70.2668 211.688 65.2532 211.688 65.2532H256.312Z" fill="#F2DAD6"/>
</g>
<path d="M234 92.9856C248.693 92.9856 265.019 66.8844 257.944 28.8201H210.056C202.981 66.8844 219.307 92.9856 234 92.9856Z" fill="#FFD0C0"/>
<g style="mix-blend-mode:multiply">
<path d="M223.421 88.6354C212.777 79.6903 204.69 57.7 210.056 28.8201H257.944C258.151 29.9439 258.332 31.0586 258.488 32.1643H213.403C208.619 57.923 214.54 78.1949 223.421 88.6354Z" fill="#F2DAD6"/>
</g>
<g style="mix-blend-mode:multiply">
<path d="M238.898 72.3227C238.353 72.8665 235.088 72.8665 234 72.8665C232.912 72.8665 229.647 72.8665 229.102 72.3227C228.558 71.7789 232.912 67.4282 234 67.4282C235.088 67.4282 239.442 71.7789 238.898 72.3227Z" fill="#F2DAD6"/>
</g>
<g style="mix-blend-mode:multiply">
<path d="M259.267 54.7583C260.186 43.6109 245.972 32.3221 234.272 43.2194C226.686 34.905 212.347 39.6141 208.516 51.9796C206.883 43.2792 208.918 34.9377 210.056 28.8311H257.944C259.591 37.3697 260.037 46.0965 259.267 54.7583Z" fill="#F2DAD6"/>
</g>
<path d="M259.528 51.463C260.252 40.3536 246.859 26.3133 234 39.1519C220.94 26.1013 207.335 40.7832 208.516 51.9687C204.402 38.8039 207.264 25.775 208.902 21.5172C209.267 20.5711 217.609 19.7391 217.941 19.2769C221.484 14.682 236.83 3.68138 247.833 0.30453C249.205 -0.114178 250.075 -0.0706759 250.679 0.250152C251.244 0.621077 251.658 1.17978 251.849 1.8271C253.34 5.41602 253.139 15.3834 252.453 19.4889C252.285 20.4841 259.343 21.8816 259.647 22.844C262.494 32.356 262.437 42.5001 259.484 51.9796C259.501 51.811 259.517 51.6587 259.528 51.463Z" fill="#262E42"/>
<g style="mix-blend-mode:color-dodge">
<path d="M259.484 51.9797C259.542 51.8045 259.557 51.618 259.528 51.4359C260.252 40.3537 246.859 26.3134 234 39.152C220.94 26.1014 207.335 40.7833 208.516 51.9688C207.226 40.7996 207.547 34.0568 211.237 30.4516C215.487 26.3026 234.582 26.2373 242.8 16.8572C246.282 12.8822 252.546 4.69833 250.668 0.250244C251.233 0.621169 251.647 1.17987 251.838 1.82719C253.33 5.41612 253.128 15.3835 252.443 19.489C252.274 20.4841 259.332 21.8817 259.637 22.8441C262.487 32.355 262.434 42.4991 259.484 51.9797Z" fill="#262E42"/>
</g>
<g style="mix-blend-mode:color-dodge">
<path d="M260.322 48.9671C260.083 49.9568 259.778 50.9628 259.484 51.9796C260.665 40.7833 247.06 26.1013 234 39.152C220.94 26.1013 207.335 40.7833 208.516 51.9688C208.195 50.9519 207.923 49.9296 207.683 48.9182C206.742 39.674 216.439 28.0644 227.198 31.7022C231.61 33.194 236.39 33.194 240.802 31.7022C251.572 28.0535 261.296 39.6957 260.322 48.9671Z" fill="#262E42"/>
</g>
<g style="mix-blend-mode:multiply" opacity="0.5">
<path d="M250.679 0.250152C246.402 -0.543761 229.848 9.18983 220.433 20.9463C220.063 21.403 212.63 22.9202 212.064 23.7576C207.923 29.8968 208.173 46.9388 208.461 51.289C208.459 51.3197 208.459 51.3507 208.461 51.3814C208.461 51.6261 208.494 51.8273 208.51 51.9796C204.396 38.8147 207.259 25.7859 208.897 21.5281C209.261 20.5819 217.604 19.75 217.936 19.2877C221.484 14.682 236.83 3.68138 247.833 0.30453C249.205 -0.114178 250.075 -0.0706759 250.679 0.250152Z" fill="#262E42"/>
</g>
<g style="mix-blend-mode:multiply" opacity="0.5">
<path d="M259.539 51.2781C260.382 39.9349 256.562 23.2192 252.927 20.0327C254.499 20.9463 259.397 22.0447 259.647 22.844C262.494 32.356 262.437 42.5001 259.484 51.9795C259.506 51.7457 259.528 51.5119 259.539 51.2781Z" fill="#262E42"/>
</g>
<g style="mix-blend-mode:multiply">
<path d="M228.449 63.078H217.343C216.621 63.078 215.929 62.7915 215.419 62.2816C214.908 61.7718 214.622 61.0802 214.622 60.3591V57.5641C214.622 56.843 214.908 56.1514 215.419 55.6416C215.929 55.1317 216.621 54.8452 217.343 54.8452H228.449C229.171 54.8452 229.863 55.1317 230.373 55.6416C230.884 56.1514 231.17 56.843 231.17 57.5641V60.3591C231.17 61.0802 230.884 61.7718 230.373 62.2816C229.863 62.7915 229.171 63.078 228.449 63.078ZM253.378 60.3591V57.5641C253.378 56.843 253.092 56.1514 252.582 55.6416C252.071 55.1317 251.379 54.8452 250.658 54.8452H239.551C238.829 54.8452 238.137 55.1317 237.627 55.6416C237.116 56.1514 236.83 56.843 236.83 57.5641V60.3591C236.83 61.0802 237.116 61.7718 237.627 62.2816C238.137 62.7915 238.829 63.078 239.551 63.078H250.658C251.379 63.078 252.071 62.7915 252.582 62.2816C253.092 61.7718 253.378 61.0802 253.378 60.3591Z" fill="#F2DAD6"/>
</g>
<g style="mix-blend-mode:multiply" opacity="0.25">
<path d="M227.051 59.4184H218.763C217.67 59.4184 216.622 58.9847 215.85 58.2127C215.077 57.4407 214.643 56.3937 214.643 55.302C214.643 54.2103 215.077 53.1632 215.85 52.3913C216.622 51.6193 217.67 51.1856 218.763 51.1856H227.073C227.614 51.1849 228.15 51.2909 228.65 51.4975C229.15 51.7041 229.604 52.0073 229.987 52.3897C230.37 52.7721 230.673 53.2261 230.88 53.7259C231.087 54.2256 231.193 54.7612 231.192 55.302C231.193 55.8446 231.086 56.382 230.878 56.8832C230.67 57.3843 230.364 57.8394 229.979 58.2221C229.594 58.6047 229.137 58.9075 228.635 59.1128C228.132 59.3181 227.594 59.422 227.051 59.4184ZM253.378 55.302C253.378 54.7596 253.271 54.2225 253.063 53.7217C252.854 53.2208 252.549 52.7661 252.164 52.3835C251.779 52.001 251.323 51.6983 250.82 51.4927C250.318 51.2871 249.78 51.1827 249.237 51.1856H240.949C240.408 51.1849 239.872 51.2909 239.372 51.4975C238.872 51.7041 238.417 52.0073 238.035 52.3897C237.652 52.7721 237.349 53.2261 237.142 53.7259C236.935 54.2256 236.829 54.7612 236.83 55.302C236.829 55.8428 236.935 56.3784 237.142 56.8781C237.349 57.3779 237.652 57.8319 238.035 58.2143C238.417 58.5967 238.872 58.8999 239.372 59.1065C239.872 59.3131 240.408 59.4191 240.949 59.4184H249.237C249.78 59.4212 250.318 59.3169 250.82 59.1113C251.323 58.9057 251.779 58.603 252.164 58.2204C252.549 57.8379 252.854 57.3832 253.063 56.8823C253.271 56.3815 253.378 55.8444 253.378 55.302Z" fill="#F2DAD6"/>
</g>
<g style="mix-blend-mode:multiply">
<path d="M231.17 59.1793C231.17 59.1793 231.905 58.3799 234 58.3799C236.095 58.3799 236.83 59.1793 236.83 59.1793" stroke="#F2DAD6" stroke-width="2" stroke-miterlimit="10" stroke-linecap="round"/>
</g>
<path d="M228.449 60.816H217.343C216.621 60.816 215.929 60.5296 215.419 60.0197C214.908 59.5098 214.622 58.8182 214.622 58.0971V55.3021C214.622 53.8013 231.17 53.8013 231.17 55.3021V58.0971C231.17 58.8182 230.884 59.5098 230.373 60.0197C229.863 60.5296 229.171 60.816 228.449 60.816ZM253.378 58.0971V55.3021C253.378 53.8013 236.83 53.8013 236.83 55.3021V58.0971C236.83 58.8182 237.116 59.5098 237.627 60.0197C238.137 60.5296 238.829 60.816 239.551 60.816H250.658C251.379 60.816 252.071 60.5296 252.582 60.0197C253.092 59.5098 253.378 58.8182 253.378 58.0971Z" fill="#BAEBFF"/>
<g style="mix-blend-mode:screen" opacity="0.5">
<path d="M214.622 55.3022V57.5537C214.622 56.0527 231.17 56.0527 231.17 57.5537V55.3022C231.17 53.8013 214.622 53.8013 214.622 55.3022ZM236.83 55.3022V57.5537C236.83 56.0527 253.378 56.0527 253.378 57.5537V55.3022C253.378 53.8013 236.83 53.8013 236.83 55.3022Z" fill="#BAEBFF"/>
</g>
<path d="M231.17 58.0917C231.17 58.0917 231.905 57.2922 234 57.2922C236.095 57.2922 236.83 58.0917 236.83 58.0917" stroke="#262E42" stroke-width="2" stroke-miterlimit="10" stroke-linecap="round"/>
<path d="M201.349 262.28C201.375 262.121 201.425 261.967 201.496 261.823L193.676 255.368C193.548 255.462 193.407 255.538 193.257 255.591C193.109 255.649 192.953 255.684 192.794 255.694L191.107 265.689C191.253 265.755 191.391 265.839 191.515 265.939C191.639 266.041 191.747 266.16 191.836 266.293L201.338 262.758C201.317 262.599 201.321 262.438 201.349 262.28Z" fill="#F42AC4"/>
<path d="M192.098 267.043C192.098 267.043 192.098 267.087 192.098 267.109L196.511 267.854C196.604 267.643 196.738 267.454 196.907 267.298C197.075 267.141 197.273 267.021 197.49 266.943C197.706 266.866 197.936 266.834 198.165 266.848C198.395 266.862 198.619 266.923 198.824 267.027L201.664 263.595C201.638 263.567 201.614 263.536 201.594 263.503L192.098 267.043Z" fill="#F42AC4"/>
<path d="M191.929 255.531L189.072 258.99C189.206 259.171 189.301 259.377 189.353 259.596C189.406 259.814 189.413 260.041 189.376 260.263C189.338 260.485 189.256 260.697 189.135 260.886C189.013 261.076 188.855 261.239 188.669 261.366L190.237 265.564H190.302L191.994 255.575L191.929 255.531Z" fill="#F42AC4"/>
<path d="M199.221 256.603C199.048 256.459 198.905 256.282 198.801 256.082C198.697 255.882 198.635 255.663 198.617 255.439L194.193 254.694L194.166 254.748L201.986 261.208L202.045 261.17L200.478 256.972C200.255 256.998 200.028 256.978 199.812 256.915C199.596 256.851 199.395 256.745 199.221 256.603Z" fill="#F42AC4"/>
<path d="M186.982 273.666L200.446 272.035L208.423 269.093C208.685 268.997 208.925 268.851 209.129 268.662C209.334 268.474 209.5 268.247 209.616 267.994C209.733 267.742 209.799 267.469 209.81 267.191C209.821 266.913 209.777 266.635 209.68 266.374L202.883 247.913C202.788 247.652 202.641 247.412 202.452 247.207C202.264 247.003 202.037 246.837 201.784 246.721C201.531 246.604 201.258 246.538 200.98 246.527C200.701 246.516 200.424 246.56 200.163 246.657L194.432 248.761L181.693 253.449C181.165 253.642 180.735 254.037 180.499 254.547C180.262 255.057 180.237 255.64 180.43 256.167L186.884 273.693L186.982 273.666ZM186.063 259.702C186.137 259.263 186.383 258.871 186.746 258.614C187.11 258.356 187.561 258.252 188 258.326C188.16 258.355 188.315 258.405 188.463 258.473L191.314 255.025C191.216 254.898 191.137 254.757 191.08 254.607C190.929 254.19 190.948 253.731 191.134 253.328C191.32 252.926 191.657 252.613 192.073 252.458C192.488 252.304 192.948 252.319 193.352 252.501C193.757 252.684 194.072 253.018 194.231 253.432C194.284 253.585 194.317 253.744 194.329 253.905L198.742 254.65C198.806 254.501 198.893 254.361 198.998 254.237C199.151 254.05 199.343 253.897 199.56 253.791C199.778 253.684 200.016 253.626 200.258 253.62C200.5 253.613 200.74 253.66 200.963 253.755C201.186 253.85 201.385 253.992 201.548 254.172C201.71 254.351 201.832 254.564 201.905 254.794C201.977 255.025 201.999 255.269 201.969 255.509C201.939 255.749 201.857 255.98 201.729 256.186C201.602 256.391 201.431 256.567 201.229 256.7L202.791 260.893C202.95 260.869 203.111 260.869 203.27 260.893C203.691 260.985 204.06 261.234 204.302 261.591C204.544 261.947 204.64 262.382 204.57 262.807C204.501 263.231 204.27 263.613 203.927 263.873C203.584 264.133 203.154 264.252 202.726 264.204C202.548 264.175 202.377 264.117 202.22 264.03L199.384 267.462C199.54 267.651 199.651 267.872 199.712 268.109C199.773 268.347 199.781 268.594 199.736 268.835C199.691 269.075 199.594 269.303 199.451 269.503C199.309 269.702 199.125 269.867 198.911 269.988C198.698 270.109 198.461 270.181 198.217 270.201C197.973 270.22 197.727 270.186 197.497 270.101C197.268 270.016 197.06 269.881 196.887 269.707C196.715 269.533 196.583 269.323 196.5 269.093C196.447 268.94 196.414 268.781 196.402 268.62L191.989 267.88C191.922 268.026 191.838 268.163 191.739 268.288C191.599 268.462 191.426 268.607 191.23 268.714C191.035 268.821 190.819 268.888 190.597 268.911C190.375 268.933 190.151 268.912 189.937 268.847C189.723 268.782 189.525 268.676 189.353 268.534C189.181 268.391 189.039 268.216 188.935 268.019C188.832 267.821 188.769 267.605 188.75 267.382C188.731 267.16 188.756 266.936 188.824 266.724C188.893 266.512 189.003 266.315 189.148 266.146C189.25 266.022 189.369 265.914 189.502 265.825L187.94 261.632C187.781 261.657 187.62 261.657 187.461 261.632C187.242 261.598 187.032 261.521 186.843 261.405C186.654 261.289 186.49 261.137 186.36 260.958C186.23 260.778 186.137 260.575 186.086 260.36C186.035 260.144 186.027 259.921 186.063 259.702Z" fill="#F42AC4"/>
</svg>
